<?xml version="1.0" encoding="utf-8"?>
<!-- Generator: Adobe Illustrator 27.5.0, SVG Export Plug-In . SVG Version: 6.00 Build 0)  -->
<svg version="1.1" xmlns="http://www.w3.org/2000/svg" xmlns:xlink="http://www.w3.org/1999/xlink" x="0px" y="0px"
	 viewBox="0 0 500 500" style="enable-background:new 0 0 500 500;" xml:space="preserve">
<g id="Background_Complete">
	<g>
		<rect y="382.398" style="fill:#EBEBEB;" width="500" height="0.25"/>
		<rect x="416.779" y="398.494" style="fill:#EBEBEB;" width="33.122" height="0.25"/>
		<rect x="322.527" y="401.208" style="fill:#EBEBEB;" width="8.693" height="0.25"/>
		<rect x="396.586" y="389.208" style="fill:#EBEBEB;" width="19.192" height="0.25"/>
		<rect x="52.459" y="390.888" style="fill:#EBEBEB;" width="43.193" height="0.25"/>
		<rect x="104.556" y="390.888" style="fill:#EBEBEB;" width="6.333" height="0.25"/>
		<rect x="131.471" y="395.111" style="fill:#EBEBEB;" width="93.676" height="0.25"/>
		<path style="fill:#EBEBEB;" d="M237.014,337.8H43.915c-3.147,0-5.708-2.561-5.708-5.708V60.66c0-3.147,2.561-5.708,5.708-5.708
			h193.099c3.146,0,5.707,2.561,5.707,5.708v271.432C242.721,335.239,240.16,337.8,237.014,337.8z M43.915,55.203
			c-3.01,0-5.458,2.448-5.458,5.458v271.432c0,3.01,2.448,5.458,5.458,5.458h193.099c3.009,0,5.457-2.448,5.457-5.458V60.66
			c0-3.009-2.448-5.458-5.457-5.458H43.915z"/>
		<path style="fill:#EBEBEB;" d="M453.31,337.8H260.212c-3.147,0-5.707-2.561-5.707-5.708V60.66c0-3.147,2.561-5.708,5.707-5.708
			H453.31c3.148,0,5.708,2.561,5.708,5.708v271.432C459.019,335.239,456.458,337.8,453.31,337.8z M260.212,55.203
			c-3.009,0-5.457,2.448-5.457,5.458v271.432c0,3.01,2.448,5.458,5.457,5.458H453.31c3.01,0,5.458-2.448,5.458-5.458V60.66
			c0-3.009-2.448-5.458-5.458-5.458H260.212z"/>
	</g>
	<g>
		<g>
			<rect x="95.507" y="94.388" style="fill:#FAFAFA;" width="71.254" height="241.711"/>
			<g>
				<polygon style="fill:#F5F5F5;" points="156.151,94.388 151.987,94.388 127.135,336.099 131.298,336.099 				"/>
			</g>
			<rect x="95.052" y="95.324" style="fill:#E0E0E0;" width="70.447" height="2.13"/>
			<rect x="95.052" y="333.984" style="fill:#EBEBEB;" width="70.447" height="4.558"/>
			<g>
				<rect x="97.761" y="338.34" style="fill:#EBEBEB;" width="66.567" height="0.202"/>
				<polygon style="fill:#EBEBEB;" points="97.761,95.323 164.328,95.323 164.328,338.34 168.315,338.34 168.315,92.336 
					93.773,92.336 93.773,338.34 97.761,338.34 				"/>
			</g>
		</g>
		<g>
			<rect x="174.795" y="94.388" style="fill:#FAFAFA;" width="71.254" height="241.711"/>
			<g>
				<polygon style="fill:#F5F5F5;" points="226.285,94.388 203.568,94.388 178.715,336.099 201.432,336.099 				"/>
			</g>
			<rect x="174.339" y="95.324" style="fill:#E0E0E0;" width="72.447" height="2.13"/>
			<rect x="174.339" y="333.984" style="fill:#EBEBEB;" width="72.447" height="4.558"/>
			<g>
				<rect x="177.048" y="338.34" style="fill:#EBEBEB;" width="66.567" height="0.202"/>
				<polygon style="fill:#EBEBEB;" points="177.048,95.323 243.615,95.323 243.615,338.34 247.602,338.34 247.602,92.336 
					173.061,92.336 173.061,338.34 177.048,338.34 				"/>
			</g>
		</g>
		<g>
			<rect x="254.082" y="94.388" style="fill:#FAFAFA;" width="69.254" height="241.711"/>
			<g>
				<polygon style="fill:#F5F5F5;" points="293.32,94.388 289.157,94.388 264.305,336.099 268.468,336.099 				"/>
			</g>
			<rect x="253.627" y="95.324" style="fill:#E0E0E0;" width="70.447" height="2.13"/>
			<rect x="253.627" y="333.984" style="fill:#EBEBEB;" width="70.447" height="4.558"/>
			<g>
				<rect x="256.335" y="338.34" style="fill:#EBEBEB;" width="66.567" height="0.202"/>
				<polygon style="fill:#EBEBEB;" points="256.335,95.323 322.902,95.323 322.902,338.34 326.89,338.34 326.89,92.336 
					252.348,92.336 252.348,338.34 256.335,338.34 				"/>
			</g>
		</g>
		<g>
			<rect x="333.37" y="94.388" style="fill:#FAFAFA;" width="71.254" height="241.711"/>
			<g>
				<polygon style="fill:#F5F5F5;" points="397.652,94.388 374.935,94.388 350.083,336.099 372.8,336.099 				"/>
			</g>
			<rect x="332.914" y="95.324" style="fill:#E0E0E0;" width="70.447" height="2.13"/>
			<rect x="332.914" y="333.984" style="fill:#EBEBEB;" width="70.447" height="4.558"/>
			<g>
				<polygon style="fill:#EBEBEB;" points="335.623,95.323 402.19,95.323 402.19,338.34 406.177,338.34 406.177,92.336 
					331.635,92.336 331.635,338.34 335.623,338.34 				"/>
				<rect x="335.623" y="338.34" style="fill:#EBEBEB;" width="66.567" height="0.202"/>
			</g>
		</g>
		<g>
			<rect x="118.782" y="280.502" style="fill:#EBEBEB;" width="30.933" height="53.488"/>
			<polygon style="fill:#EBEBEB;" points="143.774,273.027 143.774,286.442 141.335,286.442 127.161,286.442 124.722,286.442 
				124.722,273.027 			"/>
			
				<rect x="143.774" y="282.482" transform="matrix(-1 -1.224647e-16 1.224647e-16 -1 291.5091 568.9241)" style="fill:#FAFAFA;" width="3.96" height="3.96"/>
			
				<rect x="136.104" y="282.482" transform="matrix(-1 -1.224647e-16 1.224647e-16 -1 276.1673 568.9241)" style="fill:#FAFAFA;" width="3.96" height="3.96"/>
			
				<rect x="128.433" y="282.482" transform="matrix(-1 -1.224647e-16 1.224647e-16 -1 260.8255 568.9241)" style="fill:#FAFAFA;" width="3.96" height="3.96"/>
			
				<rect x="120.762" y="282.482" transform="matrix(-1 -1.224647e-16 1.224647e-16 -1 245.4838 568.9241)" style="fill:#F0F0F0;" width="3.96" height="3.96"/>
			
				<rect x="143.774" y="289.678" transform="matrix(-1 -1.224647e-16 1.224647e-16 -1 291.5091 583.3156)" style="fill:#F0F0F0;" width="3.96" height="3.96"/>
			
				<rect x="136.104" y="289.678" transform="matrix(-1 -1.224647e-16 1.224647e-16 -1 276.1673 583.3156)" style="fill:#F0F0F0;" width="3.96" height="3.96"/>
			
				<rect x="128.433" y="289.678" transform="matrix(-1 -1.224647e-16 1.224647e-16 -1 260.8255 583.3156)" style="fill:#FAFAFA;" width="3.96" height="3.96"/>
			
				<rect x="120.762" y="289.678" transform="matrix(-1 -1.224647e-16 1.224647e-16 -1 245.4838 583.3156)" style="fill:#FAFAFA;" width="3.96" height="3.96"/>
			
				<rect x="143.774" y="296.873" transform="matrix(-1 -1.224647e-16 1.224647e-16 -1 291.5091 597.7071)" style="fill:#F0F0F0;" width="3.96" height="3.96"/>
			
				<rect x="136.104" y="296.873" transform="matrix(-1 -1.224647e-16 1.224647e-16 -1 276.1673 597.7071)" style="fill:#FAFAFA;" width="3.96" height="3.96"/>
			
				<rect x="128.433" y="296.873" transform="matrix(-1 -1.224647e-16 1.224647e-16 -1 260.8255 597.7071)" style="fill:#FAFAFA;" width="3.96" height="3.96"/>
			
				<rect x="136.104" y="276.262" transform="matrix(-1 -1.224647e-16 1.224647e-16 -1 276.1673 556.485)" style="fill:#FAFAFA;" width="3.96" height="3.96"/>
			
				<rect x="128.433" y="276.262" transform="matrix(-1 -1.224647e-16 1.224647e-16 -1 260.8255 556.485)" style="fill:#F0F0F0;" width="3.96" height="3.96"/>
			
				<rect x="120.762" y="296.873" transform="matrix(-1 -1.224647e-16 1.224647e-16 -1 245.4838 597.7071)" style="fill:#F0F0F0;" width="3.96" height="3.96"/>
			
				<rect x="143.774" y="304.069" transform="matrix(-1 -1.224647e-16 1.224647e-16 -1 291.5091 612.0985)" style="fill:#FAFAFA;" width="3.96" height="3.96"/>
			
				<rect x="136.104" y="304.069" transform="matrix(-1 -1.224647e-16 1.224647e-16 -1 276.1673 612.0985)" style="fill:#F0F0F0;" width="3.96" height="3.96"/>
			
				<rect x="128.433" y="304.069" transform="matrix(-1 -1.224647e-16 1.224647e-16 -1 260.8255 612.0985)" style="fill:#F0F0F0;" width="3.96" height="3.96"/>
			
				<rect x="120.762" y="304.069" transform="matrix(-1 -1.224647e-16 1.224647e-16 -1 245.4838 612.0985)" style="fill:#FAFAFA;" width="3.96" height="3.96"/>
			
				<rect x="143.774" y="311.265" transform="matrix(-1 -1.224647e-16 1.224647e-16 -1 291.5091 626.4901)" style="fill:#F0F0F0;" width="3.96" height="3.96"/>
			
				<rect x="136.104" y="311.265" transform="matrix(-1 -1.224647e-16 1.224647e-16 -1 276.1673 626.4901)" style="fill:#FAFAFA;" width="3.96" height="3.96"/>
			
				<rect x="128.433" y="311.265" transform="matrix(-1 -1.224647e-16 1.224647e-16 -1 260.8255 626.4901)" style="fill:#FAFAFA;" width="3.96" height="3.96"/>
			
				<rect x="120.762" y="311.265" transform="matrix(-1 -1.224647e-16 1.224647e-16 -1 245.4838 626.4901)" style="fill:#F0F0F0;" width="3.96" height="3.96"/>
			
				<rect x="143.774" y="318.461" transform="matrix(-1 -1.224647e-16 1.224647e-16 -1 291.5091 640.8815)" style="fill:#F0F0F0;" width="3.96" height="3.96"/>
			
				<rect x="136.104" y="318.461" transform="matrix(-1 -1.224647e-16 1.224647e-16 -1 276.1673 640.8815)" style="fill:#FAFAFA;" width="3.96" height="3.96"/>
			
				<rect x="128.433" y="318.461" transform="matrix(-1 -1.224647e-16 1.224647e-16 -1 260.8255 640.8815)" style="fill:#F0F0F0;" width="3.96" height="3.96"/>
			
				<rect x="120.762" y="318.461" transform="matrix(-1 -1.224647e-16 1.224647e-16 -1 245.4838 640.8815)" style="fill:#FAFAFA;" width="3.96" height="3.96"/>
			
				<rect x="143.774" y="325.656" transform="matrix(-1 -1.224647e-16 1.224647e-16 -1 291.5091 655.273)" style="fill:#FAFAFA;" width="3.96" height="3.96"/>
			
				<rect x="136.104" y="325.656" transform="matrix(-1 -1.224647e-16 1.224647e-16 -1 276.1673 655.273)" style="fill:#FAFAFA;" width="3.96" height="3.96"/>
			
				<rect x="128.433" y="325.656" transform="matrix(-1 -1.224647e-16 1.224647e-16 -1 260.8255 655.273)" style="fill:#F0F0F0;" width="3.96" height="3.96"/>
			
				<rect x="120.762" y="325.656" transform="matrix(-1 -1.224647e-16 1.224647e-16 -1 245.4838 655.273)" style="fill:#F0F0F0;" width="3.96" height="3.96"/>
		</g>
		<g>
			<rect x="339.894" y="299.987" style="fill:#F0F0F0;" width="27.71" height="34.003"/>
			<polygon style="fill:#E6E6E6;" points="342.306,303.758 348.752,303.758 350.526,303.758 352.3,303.758 352.3,307.305 
				350.526,307.305 348.752,307.305 342.306,307.305 			"/>
			<polygon style="fill:#FAFAFA;" points="342.306,310.629 348.752,310.629 350.526,310.629 352.3,310.629 352.3,314.177 
				350.526,314.177 348.752,314.177 342.306,314.177 			"/>
			<polygon style="fill:#E6E6E6;" points="342.306,317.501 348.752,317.501 350.526,317.501 352.3,317.501 352.3,321.048 
				350.526,321.048 348.752,321.048 342.306,321.048 			"/>
			<polygon style="fill:#FAFAFA;" points="342.306,324.372 348.752,324.372 351.493,324.372 352.3,324.372 352.3,327.92 
				351.493,327.92 348.752,327.92 342.306,327.92 			"/>
			<polygon style="fill:#FAFAFA;" points="355.198,303.758 361.644,303.758 363.418,303.758 365.192,303.758 365.192,307.305 
				363.418,307.305 361.644,307.305 355.198,307.305 			"/>
			<polygon style="fill:#FAFAFA;" points="355.198,310.629 361.644,310.629 364.145,310.629 365.192,310.629 365.192,314.177 
				364.145,314.177 361.644,314.177 355.198,314.177 			"/>
			<polygon style="fill:#E6E6E6;" points="355.198,317.501 361.644,317.501 363.418,317.501 365.192,317.501 365.192,321.048 
				363.418,321.048 361.644,321.048 355.198,321.048 			"/>
			<polygon style="fill:#FAFAFA;" points="355.198,324.372 361.644,324.372 363.418,324.372 365.192,324.372 365.192,327.92 
				363.418,327.92 361.644,327.92 355.198,327.92 			"/>
		</g>
		<g>
			<rect x="208.902" y="312.862" style="fill:#F0F0F0;" width="25.177" height="21.128"/>
			
				<rect x="229.244" y="315.496" transform="matrix(-1 -1.224647e-16 1.224647e-16 -1 461.7106 634.2146)" style="fill:#FAFAFA;" width="3.223" height="3.223"/>
			
				<rect x="223" y="315.496" transform="matrix(-1 -1.224647e-16 1.224647e-16 -1 449.2238 634.2146)" style="fill:#FAFAFA;" width="3.223" height="3.223"/>
			
				<rect x="216.757" y="315.496" transform="matrix(-1 -1.224647e-16 1.224647e-16 -1 436.7369 634.2146)" style="fill:#FAFAFA;" width="3.223" height="3.223"/>
			
				<rect x="210.513" y="315.496" transform="matrix(-1 -1.224647e-16 1.224647e-16 -1 424.25 634.2146)" style="fill:#FAFAFA;" width="3.223" height="3.223"/>
			
				<rect x="229.244" y="321.352" transform="matrix(-1 -1.224647e-16 1.224647e-16 -1 461.7106 645.928)" style="fill:#FAFAFA;" width="3.223" height="3.223"/>
			
				<rect x="223" y="321.352" transform="matrix(-1 -1.224647e-16 1.224647e-16 -1 449.2238 645.928)" style="fill:#FAFAFA;" width="3.223" height="3.223"/>
			
				<rect x="216.757" y="321.352" transform="matrix(-1 -1.224647e-16 1.224647e-16 -1 436.7369 645.928)" style="fill:#FAFAFA;" width="3.223" height="3.223"/>
			
				<rect x="210.513" y="321.352" transform="matrix(-1 -1.224647e-16 1.224647e-16 -1 424.25 645.928)" style="fill:#E6E6E6;" width="3.223" height="3.223"/>
			
				<rect x="229.244" y="327.209" transform="matrix(-1 -1.224647e-16 1.224647e-16 -1 461.7106 657.6414)" style="fill:#E6E6E6;" width="3.223" height="3.223"/>
			
				<rect x="223" y="327.209" transform="matrix(-1 -1.224647e-16 1.224647e-16 -1 449.2238 657.6414)" style="fill:#E6E6E6;" width="3.223" height="3.223"/>
			
				<rect x="216.757" y="327.209" transform="matrix(-1 -1.224647e-16 1.224647e-16 -1 436.7369 657.6414)" style="fill:#FAFAFA;" width="3.223" height="3.223"/>
			
				<rect x="210.513" y="327.209" transform="matrix(-1 -1.224647e-16 1.224647e-16 -1 424.25 657.6414)" style="fill:#E6E6E6;" width="3.223" height="3.223"/>
		</g>
		<g>
			<rect x="180.312" y="297.238" style="fill:#F0F0F0;" width="25.177" height="36.752"/>
			<rect x="194.411" y="298.85" style="fill:#FAFAFA;" width="9.467" height="9.08"/>
			<rect x="181.924" y="298.85" style="fill:#FAFAFA;" width="9.467" height="9.08"/>
			<rect x="194.411" y="310.563" style="fill:#FAFAFA;" width="9.467" height="9.08"/>
			<rect x="181.924" y="310.563" style="fill:#FAFAFA;" width="9.467" height="9.08"/>
			<rect x="194.411" y="322.277" style="fill:#FAFAFA;" width="9.467" height="9.08"/>
			<rect x="181.924" y="322.277" style="fill:#FAFAFA;" width="9.467" height="9.08"/>
		</g>
	</g>
</g>
<g id="Background_Simple" style="display:none;">
	<g style="display:inline;">
		<path style="fill:#407BFF;" d="M97.339,102.253c27.919-59.449,127.059-51.062,165.317-9.255
			c38.258,41.806,50.696,68.599,85.208,52.983c34.512-15.616,78.518-11.44,81.042,38.164s-37.913,108.263-102.09,125.615
			c-64.177,17.352-64.161,78.759-149.1,66.368c-46.31-6.756-47.365-56.86-40.825-98.301
			C143.431,236.386,64.96,171.196,97.339,102.253z"/>
		<path style="opacity:0.9;fill:#FFFFFF;" d="M97.339,102.253c27.919-59.449,127.059-51.062,165.317-9.255
			c38.258,41.806,50.696,68.599,85.208,52.983c34.512-15.616,78.518-11.44,81.042,38.164s-37.913,108.263-102.09,125.615
			c-64.177,17.352-64.161,78.759-149.1,66.368c-46.31-6.756-47.365-56.86-40.825-98.301
			C143.431,236.386,64.96,171.196,97.339,102.253z"/>
	</g>
</g>
<g id="Shadow_1_">
	<ellipse id="_x3C_Path_x3E__359_" style="fill:#F5F5F5;" cx="250" cy="416.238" rx="193.889" ry="11.323"/>
</g>
<g id="Plant">
	<g>
		<g>
			<path style="fill:none;stroke:#407BFF;stroke-miterlimit:10;" d="M395.119,348.627c0,0,6.347-5.292,11.79,0
				c5.443,5.292,6.493,38.076,6.493,38.076"/>
			<path style="fill:none;stroke:#407BFF;stroke-miterlimit:10;" d="M413.852,393.033c0,0-3.742-38.474,10.346-54.642"/>
			<path style="fill:none;stroke:#407BFF;stroke-miterlimit:10;" d="M412.512,388.978c0,0,2.882-43.799-7.684-53.517"/>
			<path style="fill:none;stroke:#407BFF;stroke-miterlimit:10;" d="M413.852,388.978c0,0,0.246-28.942,8.097-33.442
				c7.852-4.499,11.854,10.175,11.854,10.175"/>
			<path style="fill:none;stroke:#407BFF;stroke-miterlimit:10;" d="M410.751,388.978c0,0,1.281-22.219-4.803-30.16
				c-6.083-7.941-12.487,3.402-12.487,3.402"/>
			<path style="fill:none;stroke:#407BFF;stroke-miterlimit:10;" d="M412.871,391.954c0,0-3.934-51.963,2.576-60.768"/>
		</g>
		<g>
			<path style="fill:#407BFF;" d="M428.673,359.753c0,0-3.915,1.443-2.751,4.85c1.164,3.407,13.543,9.015,13.543,9.015
				s5.185-4.752,0.423-12.481C435.127,353.409,428.778,357.315,428.673,359.753z"/>
			<path style="opacity:0.5;fill:#FFFFFF;enable-background:new    ;" d="M428.673,359.753c0,0-3.915,1.443-2.751,4.85
				c1.164,3.407,13.543,9.015,13.543,9.015s5.185-4.752,0.423-12.481C435.127,353.409,428.778,357.315,428.673,359.753z"/>
		</g>
		<g>
			<path style="fill:#407BFF;" d="M411.653,353.267c0,0,4.169-0.174,4.406,3.418c0.237,3.593-9.031,13.533-9.031,13.533
				s-6.614-2.391-5.194-11.357C403.255,349.895,410.617,351.057,411.653,353.267z"/>
			<path style="opacity:0.5;fill:#FFFFFF;enable-background:new    ;" d="M411.653,353.267c0,0,4.169-0.174,4.406,3.418
				c0.237,3.593-9.031,13.533-9.031,13.533s-6.614-2.391-5.194-11.357C403.255,349.895,410.617,351.057,411.653,353.267z"/>
		</g>
		<g>
			<path style="fill:#407BFF;" d="M408.124,336.068c0,0,2.779-0.298,2.556-1.991c-0.224-1.693-10.805-6.05-17.047,0.996
				c0,0,3.997,6.866,9.776,6.956C409.186,342.118,408.124,336.068,408.124,336.068z"/>
			<path style="opacity:0.5;fill:#FFFFFF;enable-background:new    ;" d="M408.124,336.068c0,0,2.779-0.298,2.556-1.991
				c-0.224-1.693-10.805-6.05-17.047,0.996c0,0,3.997,6.866,9.776,6.956C409.186,342.118,408.124,336.068,408.124,336.068z"/>
		</g>
		<g>
			<path style="fill:#407BFF;" d="M413.303,331.957c0,0-2.517,1.217-3.222-0.338c-0.706-1.555,5.97-10.849,14.994-8.171
				c0,0,0.239,7.941-4.617,11.074C415.602,337.654,413.303,331.957,413.303,331.957z"/>
			<path style="opacity:0.5;fill:#FFFFFF;enable-background:new    ;" d="M413.303,331.957c0,0-2.517,1.217-3.222-0.338
				c-0.706-1.555,5.97-10.849,14.994-8.171c0,0,0.239,7.941-4.617,11.074C415.602,337.654,413.303,331.957,413.303,331.957z"/>
		</g>
		<g>
			<path style="fill:#407BFF;" d="M400.144,358.383c0,0,1.918-1.549-0.152-2.305c-2.07-0.756-12.228-0.541-12.333,9.521
				c0,0,11.83,1.966,13.295-1.867C402.417,359.9,400.144,358.383,400.144,358.383z"/>
			<path style="opacity:0.5;fill:#FFFFFF;enable-background:new    ;" d="M400.144,358.383c0,0,1.918-1.549-0.152-2.305
				c-2.07-0.756-12.228-0.541-12.333,9.521c0,0,11.83,1.966,13.295-1.867C402.417,359.9,400.144,358.383,400.144,358.383z"/>
		</g>
		<g>
			<path style="fill:#407BFF;" d="M424.268,335.816c0,0-1.918-1.549,0.152-2.305c2.07-0.756,12.228-0.541,12.334,9.521
				c0,0-11.83,1.966-13.295-1.867C421.994,337.332,424.268,335.816,424.268,335.816z"/>
			<path style="opacity:0.5;fill:#FFFFFF;enable-background:new    ;" d="M424.268,335.816c0,0-1.918-1.549,0.152-2.305
				c2.07-0.756,12.228-0.541,12.334,9.521c0,0-11.83,1.966-13.295-1.867C421.994,337.332,424.268,335.816,424.268,335.816z"/>
		</g>
		<g>
			<path style="fill:#407BFF;" d="M418.014,343.921c0,0-0.169-1.883,1.351-1.145c1.52,0.738,6.815,6.451,1.326,11.872
				c0,0-7.389-5.472-6.057-8.322C415.966,343.476,418.014,343.921,418.014,343.921z"/>
			<path style="opacity:0.5;fill:#FFFFFF;enable-background:new    ;" d="M418.014,343.921c0,0-0.169-1.883,1.351-1.145
				c1.52,0.738,6.815,6.451,1.326,11.872c0,0-7.389-5.472-6.057-8.322C415.966,343.476,418.014,343.921,418.014,343.921z"/>
		</g>
		<g>
			<path style="fill:#407BFF;" d="M398.429,346.604c0,0,1.147-1.503-0.533-1.689c-1.679-0.186-9.205,1.823-7.453,9.336
				c0,0,9.169-0.689,9.562-3.81S398.429,346.604,398.429,346.604z"/>
			<path style="opacity:0.5;fill:#FFFFFF;enable-background:new    ;" d="M398.429,346.604c0,0,1.147-1.503-0.533-1.689
				c-1.679-0.186-9.205,1.823-7.453,9.336c0,0,9.169-0.689,9.562-3.81S398.429,346.604,398.429,346.604z"/>
		</g>
		<polygon style="fill:#263238;" points="429.404,416.87 397.945,416.87 394.551,382.426 432.798,382.426 		"/>
		<polygon style="opacity:0.2;fill:#FFFFFF;enable-background:new    ;" points="429.404,416.87 397.945,416.87 394.551,382.426 
			432.798,382.426 		"/>
		<rect x="392.872" y="378.626" style="fill:#263238;" width="41.606" height="7.6"/>
		<rect x="392.872" y="378.626" style="opacity:0.4;fill:#FFFFFF;enable-background:new    ;" width="41.606" height="7.6"/>
	</g>
</g>
<g id="Trash_bin">
	<g>
		<g>
			<path style="fill:#407BFF;" d="M101.451,396.649c0.823-1.382-0.338-3.461-1.947-3.485c0.705-1.983,0.01-4.38-1.647-5.678
				c-0.209-0.164-0.449-0.317-0.715-0.318c-0.285-0.001-0.537,0.173-0.768,0.339c-1.516,1.089-3.031,2.178-4.547,3.267
				c-0.347,0.249-0.706,0.513-0.902,0.892c-0.929,1.801,2.421,4.108,1.044,5.594c-0.395,0.427-1.033,0.515-1.526,0.823
				c-1.082,0.676-1.213,2.162-1.717,3.334c-0.505,1.172-2.263,2.082-2.936,0.998c0.497-1.125-1.006-2.093-2.228-2.236
				c-1.205-0.141-2.496-0.21-3.171-1.355c-1.732,1.514-5.611-2.71-5.522-4.414c-1.424,0.108-2.394,1.442-2.706,2.776
				c-0.323,1.384-0.123,2.826-0.146,4.245c-0.044,2.758-0.934,5.459-0.885,8.216c0.038,2.146,0.867,4.529,2.832,5.392
				c0.946,0.415,2.014,0.416,3.047,0.409c7.458-0.048,14.915-0.095,22.373-0.143c0.537-0.004,1.097-0.012,1.573-0.261
				c1.009-0.527,1.223-1.853,1.316-2.988c0.401-4.861,0.801-9.721,1.201-14.581C102.801,397.2,102.126,396.924,101.451,396.649z"/>
			<path style="opacity:0.3;fill:#FFFFFF;enable-background:new    ;" d="M101.451,396.649c0.823-1.382-0.338-3.461-1.947-3.485
				c0.705-1.983,0.01-4.38-1.647-5.678c-0.209-0.164-0.449-0.317-0.715-0.318c-0.285-0.001-0.537,0.173-0.768,0.339
				c-1.516,1.089-3.031,2.178-4.547,3.267c-0.347,0.249-0.706,0.513-0.902,0.892c-0.929,1.801,2.421,4.108,1.044,5.594
				c-0.395,0.427-1.033,0.515-1.526,0.823c-1.082,0.676-1.213,2.162-1.717,3.334c-0.505,1.172-2.263,2.082-2.936,0.998
				c0.497-1.125-1.006-2.093-2.228-2.236c-1.205-0.141-2.496-0.21-3.171-1.355c-1.732,1.514-5.611-2.71-5.522-4.414
				c-1.424,0.108-2.394,1.442-2.706,2.776c-0.323,1.384-0.123,2.826-0.146,4.245c-0.044,2.758-0.934,5.459-0.885,8.216
				c0.038,2.146,0.867,4.529,2.832,5.392c0.946,0.415,2.014,0.416,3.047,0.409c7.458-0.048,14.915-0.095,22.373-0.143
				c0.537-0.004,1.097-0.012,1.573-0.261c1.009-0.527,1.223-1.853,1.316-2.988c0.401-4.861,0.801-9.721,1.201-14.581
				C102.801,397.2,102.126,396.924,101.451,396.649z"/>
		</g>
		<g>
			<g>
				<path style="fill:#407BFF;" d="M102.757,373.001h-2.512h-6.917h-2.521h-6.908h-2.521H74.47H71.95h-3.907l0.286,3.507
					l0.204,2.504l0.53,6.517l0.302,3.744l0.399,4.983l0.171,2.137l0.057,0.636l0.204,2.512l0.277,3.442l0.172,2.137l0.179,2.169
					l0.204,2.512l0.155,1.9l0.171,2.137l0.073,0.93h4.568h3.858h5.571h3.858h5.571h3.858h4.576l0.074-0.93l0.171-2.129l0.155-1.917
					l0.204-2.512l0.18-2.161l0.171-2.137l0.277-3.45l0.204-2.504l0.049-0.636l0.171-2.137l0.408-4.983l0.302-3.736l0.522-6.525
					l0.204-2.504l0.285-3.507H102.757z M104.845,375.301L104.845,375.301l-0.669-0.669h0.726L104.845,375.301z M104.674,377.43
					l-0.065,0.848l-3.108,3.108l-3.564-3.564l3.189-3.189h0.75L104.674,377.43z M103.777,388.539l-2.276,2.276l-3.564-3.564
					l3.564-3.556l2.463,2.463L103.777,388.539z M70.743,386.158L70.743,386.158l2.463-2.463l3.564,3.556l-3.564,3.564l-2.268-2.276
					L70.743,386.158z M100.351,382.536l-3.564,3.564l-3.564-3.564l3.564-3.564L100.351,382.536z M94.747,374.632h4.078l-2.039,2.039
					L94.747,374.632z M95.628,387.25l-3.556,3.564l-3.564-3.564l3.564-3.556L95.628,387.25z M83.793,391.965l3.564-3.556
					l3.556,3.556l-3.556,3.564L83.793,391.965z M86.199,396.679l-3.564,3.564l-3.556-3.556l3.564-3.564L86.199,396.679z
					 M92.072,393.123l3.556,3.564l-3.556,3.556l-3.564-3.564L92.072,393.123z M87.357,386.1l-3.564-3.564l3.564-3.564l3.556,3.564
					L87.357,386.1z M86.199,387.25l-3.556,3.564l-3.564-3.564l3.564-3.556L86.199,387.25z M77.921,386.1l-3.556-3.564l3.556-3.564
					l3.564,3.564L77.921,386.1z M77.921,388.409l3.564,3.556l-3.564,3.564l-3.556-3.564L77.921,388.409z M81.485,401.402
					l-3.564,3.556l-3.556-3.556l3.556-3.564L81.485,401.402z M82.635,402.552l3.564,3.564l-3.556,3.565l-3.564-3.565L82.635,402.552
					z M83.793,401.402l3.564-3.564l3.556,3.564l-3.556,3.556L83.793,401.402z M92.072,402.552l3.556,3.564l-3.556,3.565
					l-3.564-3.565L92.072,402.552z M96.786,407.267l3.564,3.564l-2.308,2.308H95.53l-2.308-2.308L96.786,407.267z M93.222,401.402
					l3.564-3.564l3.564,3.564l-3.564,3.556L93.222,401.402z M93.222,391.965l3.564-3.556l3.564,3.556l-3.564,3.564L93.222,391.965z
					 M95.628,377.822l-3.556,3.564l-3.564-3.564l3.189-3.189h0.751L95.628,377.822z M87.357,376.672l-2.039-2.039h4.07
					L87.357,376.672z M86.199,377.822l-3.556,3.564l-3.564-3.564l3.189-3.189h0.75L86.199,377.822z M79.96,374.632l-2.039,2.039
					l-2.031-2.039H79.96z M73.581,374.632l3.189,3.189l-3.564,3.564l-3.099-3.108l-0.065-0.848l2.79-2.798H73.581z M70.531,374.632
					l-0.661,0.661l0,0l-0.057-0.661H70.531z M70.311,380.791l1.746,1.745l-1.485,1.485L70.311,380.791z M71.281,392.74l-0.139-1.688
					l0,0l0.914,0.914L71.281,392.74L71.281,392.74z M71.452,394.885l1.754-1.762l3.564,3.564l-3.564,3.556l-1.435-1.436
					L71.452,394.885z M71.983,401.475l-0.008-0.155l0.082,0.082L71.983,401.475L71.983,401.475z M72.603,409.069l-0.449-5.465
					l1.052-1.052l3.564,3.564l-3.564,3.556L72.603,409.069L72.603,409.069z M72.929,413.139l-0.065-0.816l0.343-0.343l1.158,1.158
					H72.929z M74.364,410.831l3.556-3.564l3.564,3.564l-2.308,2.308h-2.512L74.364,410.831z M81.485,413.139l1.158-1.158
					l1.158,1.158H81.485z M86.101,413.139l-2.308-2.308l3.564-3.564l3.556,3.564l-2.3,2.308H86.101z M90.914,413.139l1.158-1.158
					l1.158,1.158H90.914z M101.778,413.139h-1.436l1.158-1.158l0.343,0.343L101.778,413.139z M102.113,409.069l-0.612,0.604
					l-3.564-3.556l3.564-3.564l1.052,1.052L102.113,409.069z M102.741,401.312l-0.016,0.163l-0.074-0.073L102.741,401.312
					L102.741,401.312z M102.945,398.808l-1.444,1.436l-3.564-3.556l3.564-3.564l1.762,1.762L102.945,398.808z M103.434,392.748
					l-0.783-0.783l0.922-0.914L103.434,392.748z M104.405,380.782l-0.261,3.246l-1.493-1.493L104.405,380.782L104.405,380.782z"/>
			</g>
			<g style="opacity:0.6;enable-background:new    ;">
				<path style="fill:#FFFFFF;" d="M102.757,373.001h-2.512h-6.917h-2.521h-6.908h-2.521H74.47H71.95h-3.907l0.286,3.507
					l0.204,2.504l0.53,6.517l0.302,3.744l0.399,4.983l0.171,2.137l0.057,0.636l0.204,2.512l0.277,3.442l0.172,2.137l0.179,2.169
					l0.204,2.512l0.155,1.9l0.171,2.137l0.073,0.93h4.568h3.858h5.571h3.858h5.571h3.858h4.576l0.074-0.93l0.171-2.129l0.155-1.917
					l0.204-2.512l0.18-2.161l0.171-2.137l0.277-3.45l0.204-2.504l0.049-0.636l0.171-2.137l0.408-4.983l0.302-3.736l0.522-6.525
					l0.204-2.504l0.285-3.507H102.757z M104.845,375.301L104.845,375.301l-0.669-0.669h0.726L104.845,375.301z M104.674,377.43
					l-0.065,0.848l-3.108,3.108l-3.564-3.564l3.189-3.189h0.75L104.674,377.43z M103.777,388.539l-2.276,2.276l-3.564-3.564
					l3.564-3.556l2.463,2.463L103.777,388.539z M70.743,386.158L70.743,386.158l2.463-2.463l3.564,3.556l-3.564,3.564l-2.268-2.276
					L70.743,386.158z M100.351,382.536l-3.564,3.564l-3.564-3.564l3.564-3.564L100.351,382.536z M94.747,374.632h4.078l-2.039,2.039
					L94.747,374.632z M95.628,387.25l-3.556,3.564l-3.564-3.564l3.564-3.556L95.628,387.25z M83.793,391.965l3.564-3.556
					l3.556,3.556l-3.556,3.564L83.793,391.965z M86.199,396.679l-3.564,3.564l-3.556-3.556l3.564-3.564L86.199,396.679z
					 M92.072,393.123l3.556,3.564l-3.556,3.556l-3.564-3.564L92.072,393.123z M87.357,386.1l-3.564-3.564l3.564-3.564l3.556,3.564
					L87.357,386.1z M86.199,387.25l-3.556,3.564l-3.564-3.564l3.564-3.556L86.199,387.25z M77.921,386.1l-3.556-3.564l3.556-3.564
					l3.564,3.564L77.921,386.1z M77.921,388.409l3.564,3.556l-3.564,3.564l-3.556-3.564L77.921,388.409z M81.485,401.402
					l-3.564,3.556l-3.556-3.556l3.556-3.564L81.485,401.402z M82.635,402.552l3.564,3.564l-3.556,3.565l-3.564-3.565L82.635,402.552
					z M83.793,401.402l3.564-3.564l3.556,3.564l-3.556,3.556L83.793,401.402z M92.072,402.552l3.556,3.564l-3.556,3.565
					l-3.564-3.565L92.072,402.552z M96.786,407.267l3.564,3.564l-2.308,2.308H95.53l-2.308-2.308L96.786,407.267z M93.222,401.402
					l3.564-3.564l3.564,3.564l-3.564,3.556L93.222,401.402z M93.222,391.965l3.564-3.556l3.564,3.556l-3.564,3.564L93.222,391.965z
					 M95.628,377.822l-3.556,3.564l-3.564-3.564l3.189-3.189h0.751L95.628,377.822z M87.357,376.672l-2.039-2.039h4.07
					L87.357,376.672z M86.199,377.822l-3.556,3.564l-3.564-3.564l3.189-3.189h0.75L86.199,377.822z M79.96,374.632l-2.039,2.039
					l-2.031-2.039H79.96z M73.581,374.632l3.189,3.189l-3.564,3.564l-3.099-3.108l-0.065-0.848l2.79-2.798H73.581z M70.531,374.632
					l-0.661,0.661l0,0l-0.057-0.661H70.531z M70.311,380.791l1.746,1.745l-1.485,1.485L70.311,380.791z M71.281,392.74l-0.139-1.688
					l0,0l0.914,0.914L71.281,392.74L71.281,392.74z M71.452,394.885l1.754-1.762l3.564,3.564l-3.564,3.556l-1.435-1.436
					L71.452,394.885z M71.983,401.475l-0.008-0.155l0.082,0.082L71.983,401.475L71.983,401.475z M72.603,409.069l-0.449-5.465
					l1.052-1.052l3.564,3.564l-3.564,3.556L72.603,409.069L72.603,409.069z M72.929,413.139l-0.065-0.816l0.343-0.343l1.158,1.158
					H72.929z M74.364,410.831l3.556-3.564l3.564,3.564l-2.308,2.308h-2.512L74.364,410.831z M81.485,413.139l1.158-1.158
					l1.158,1.158H81.485z M86.101,413.139l-2.308-2.308l3.564-3.564l3.556,3.564l-2.3,2.308H86.101z M90.914,413.139l1.158-1.158
					l1.158,1.158H90.914z M101.778,413.139h-1.436l1.158-1.158l0.343,0.343L101.778,413.139z M102.113,409.069l-0.612,0.604
					l-3.564-3.556l3.564-3.564l1.052,1.052L102.113,409.069z M102.741,401.312l-0.016,0.163l-0.074-0.073L102.741,401.312
					L102.741,401.312z M102.945,398.808l-1.444,1.436l-3.564-3.556l3.564-3.564l1.762,1.762L102.945,398.808z M103.434,392.748
					l-0.783-0.783l0.922-0.914L103.434,392.748z M104.405,380.782l-0.261,3.246l-1.493-1.493L104.405,380.782L104.405,380.782z"/>
			</g>
		</g>
		<path style="fill:#407BFF;" d="M67.464,376.087h39.782c0.908,0,1.643-0.736,1.643-1.643v-1.254c0-0.908-0.736-1.643-1.643-1.643
			H67.464c-0.908,0-1.643,0.736-1.643,1.643v1.254C65.821,375.352,66.556,376.087,67.464,376.087z"/>
		<path style="fill:#407BFF;" d="M104.14,416.87H70.569c-0.908,0-1.643-0.736-1.643-1.643v-1.254c0-0.907,0.736-1.643,1.643-1.643
			h33.571c0.908,0,1.643,0.736,1.643,1.643v1.254C105.783,416.134,105.047,416.87,104.14,416.87z"/>
	</g>
</g>
<g id="Device">
	<g>
		<g>
			<path style="fill:#407BFF;" d="M339.069,416.87h-92.828c-5.745,0-9.995-4.657-9.492-10.402l23.983-274.122
				c0.503-5.745,5.567-10.402,11.312-10.402h92.828c5.745,0,9.995,4.657,9.492,10.402l-23.983,274.122
				C349.879,412.212,344.814,416.87,339.069,416.87z"/>
			<path style="opacity:0.4;fill:#FFFFFF;enable-background:new    ;" d="M339.069,416.87h-92.828
				c-5.745,0-9.995-4.657-9.492-10.402l23.983-274.122c0.503-5.745,5.567-10.402,11.312-10.402h92.828
				c5.745,0,9.995,4.657,9.492,10.402l-23.983,274.122C349.879,412.212,344.814,416.87,339.069,416.87z"/>
			<path style="fill:#263238;" d="M329.069,416.87h-92.828c-5.745,0-9.995-4.657-9.492-10.402l23.983-274.122
				c0.503-5.745,5.567-10.402,11.312-10.402h92.828c5.745,0,9.995,4.657,9.492,10.402l-23.983,274.122
				C339.879,412.212,334.814,416.87,329.069,416.87z"/>
			<path style="fill:#407BFF;" d="M329.069,416.87h-92.828c-5.745,0-9.995-4.657-9.492-10.402l23.983-274.122
				c0.503-5.745,5.567-10.402,11.312-10.402h92.828c5.745,0,9.995,4.657,9.492,10.402l-23.983,274.122
				C339.879,412.212,334.814,416.87,329.069,416.87z"/>
			<path style="opacity:0.4;fill:#FFFFFF;enable-background:new    ;" d="M360.575,131.823l-24.028,274.639
				c-0.198,2.259-1.609,4.014-3.175,4.014H232.756c-1.439,0-2.382-1.607-2.2-3.684l24.086-275.299
				c0.157-1.798,1.21-3.371,2.456-3.371h25.154c0.71,0,1.296,0.669,1.477,1.633l0.718,3.701c0.181,0.956,0.768,1.616,1.478,1.616
				h42.825c0.711,0,1.41-0.634,1.759-1.59l1.367-3.719c0.349-0.964,1.053-1.642,1.763-1.642h24.793
				C359.803,128.122,360.748,129.842,360.575,131.823z"/>
			<polygon style="fill:#407BFF;" points="359.397,145.28 338.78,380.937 232.817,380.937 253.435,145.28 			"/>
			<g>
				<g>
					<polygon style="opacity:0.6;fill:#FFFFFF;enable-background:new    ;" points="265.645,139.189 266.954,139.189 
						267.174,136.672 265.865,136.672 					"/>
					<polygon style="opacity:0.6;fill:#FFFFFF;enable-background:new    ;" points="263.512,139.189 264.821,139.189 
						265.114,135.832 263.806,135.832 					"/>
					<polygon style="opacity:0.6;fill:#FFFFFF;enable-background:new    ;" points="261.379,139.189 262.688,139.189 
						263.055,134.992 261.746,134.992 					"/>
					<polygon style="opacity:0.6;fill:#FFFFFF;enable-background:new    ;" points="259.246,139.189 260.555,139.189 
						260.995,134.152 259.686,134.152 					"/>
				</g>
				<g>
					<polygon style="opacity:0.6;fill:#FFFFFF;enable-background:new    ;" points="348.018,138.271 347.243,138.271 
						347.463,135.753 348.239,135.753 					"/>
					<polygon style="opacity:0.6;fill:#FFFFFF;enable-background:new    ;" points="348.471,139.189 354.652,139.189 
						355.033,134.834 348.852,134.834 					"/>
				</g>
			</g>
			<g>
				<path style="opacity:0.6;fill:#263238;enable-background:new    ;" d="M307.868,128.483c-0.101,1.159-0.835,2.099-1.638,2.099
					c-0.803,0-1.372-0.94-1.271-2.099c0.101-1.159,0.835-2.099,1.638-2.099C307.401,126.385,307.97,127.324,307.868,128.483z"/>
				<path style="opacity:0.6;fill:#263238;enable-background:new    ;" d="M310.812,128.483c-0.065,0.743-0.535,1.344-1.049,1.344
					s-0.879-0.602-0.814-1.344c0.065-0.743,0.535-1.345,1.049-1.345C310.512,127.139,310.877,127.741,310.812,128.483z"/>
			</g>
			<polygon style="fill:#263238;" points="359.395,145.283 356.534,177.973 356.044,183.613 353.754,209.803 353.395,213.873 
				350.145,251.003 349.794,255.073 346.674,290.723 346.224,295.853 338.784,380.933 232.814,380.933 253.434,145.283 			"/>
		</g>
		<g>
			<g>
				<path style="opacity:0.5;fill:#FFFFFF;" d="M254.73,218.08c0.11,0.086,0.242,0.127,0.377,0.127c0.201,0,0.408-0.092,0.551-0.266
					c0.239-0.291,0.212-0.7-0.062-0.913l-1.815-1.419l2.051-1.424c0.309-0.215,0.405-0.624,0.215-0.914
					c-0.191-0.291-0.598-0.351-0.905-0.137l-2.811,1.951c-0.178,0.123-0.293,0.319-0.311,0.526
					c-0.017,0.208,0.065,0.402,0.223,0.525L254.73,218.08z"/>
				<path style="opacity:0.5;fill:#FFFFFF;" d="M263.814,215.6l-2.051,1.423c-0.309,0.214-0.405,0.624-0.215,0.914
					c0.114,0.174,0.305,0.265,0.505,0.265c0.135,0,0.276-0.042,0.4-0.128l2.811-1.95c0.178-0.123,0.293-0.319,0.31-0.526
					c0.017-0.208-0.065-0.403-0.223-0.526l-2.486-1.944c-0.273-0.214-0.69-0.151-0.928,0.139c-0.239,0.291-0.212,0.7,0.062,0.914
					L263.814,215.6z"/>
				<path style="opacity:0.5;fill:#FFFFFF;" d="M257.671,218.168c0.07,0.025,0.143,0.037,0.215,0.037
					c0.27,0,0.537-0.168,0.655-0.436l1.711-3.896c0.15-0.34,0.002-0.714-0.329-0.834c-0.331-0.12-0.721,0.058-0.87,0.398
					l-1.712,3.896C257.193,217.674,257.34,218.048,257.671,218.168z"/>
				<path style="opacity:0.5;fill:#FFFFFF;" d="M268.585,218.425h3.459c0.483,0,0.907-0.39,0.948-0.871
					c0.041-0.481-0.318-0.871-0.801-0.871h-3.459c-0.483,0-0.907,0.39-0.948,0.871C267.744,218.034,268.102,218.425,268.585,218.425
					z"/>
				<path style="fill:#FFFFFF;" d="M280.802,241.01c0.041-0.481-0.318-0.871-0.8-0.871h-30.008c-0.483,0-0.907,0.39-0.948,0.871
					c-0.041,0.481,0.318,0.871,0.801,0.871h30.008C280.337,241.881,280.761,241.491,280.802,241.01z"/>
				<path style="opacity:0.5;fill:#FFFFFF;" d="M284.57,241.881h8.825c0.483,0,0.907-0.39,0.948-0.871
					c0.041-0.481-0.318-0.871-0.801-0.871h-8.825c-0.483,0-0.907,0.39-0.948,0.871C283.729,241.491,284.087,241.881,284.57,241.881z
					"/>
				<path style="opacity:0.5;fill:#FFFFFF;" d="M250.312,236.365h11.358c0.483,0,0.907-0.39,0.948-0.872
					c0.041-0.481-0.318-0.871-0.801-0.871H250.46c-0.483,0-0.907,0.39-0.948,0.871C249.471,235.975,249.829,236.365,250.312,236.365
					z"/>
				<path style="fill:#FFFFFF;" d="M303.553,235.493c0.041-0.481-0.318-0.871-0.801-0.871h-35.292c-0.483,0-0.907,0.39-0.948,0.871
					c-0.041,0.481,0.318,0.872,0.801,0.872h35.292C303.088,236.365,303.512,235.975,303.553,235.493z"/>
				<path style="fill:#FFFFFF;" d="M250.779,230.849h20.591c0.483,0,0.907-0.39,0.948-0.871c0.041-0.481-0.318-0.871-0.801-0.871
					h-20.591c-0.483,0-0.907,0.39-0.948,0.871C249.938,230.459,250.296,230.849,250.779,230.849z"/>
				<path style="opacity:0.5;fill:#FFFFFF;" d="M275.312,229.978c-0.041,0.481,0.318,0.871,0.801,0.871h5.103
					c0.483,0,0.907-0.39,0.948-0.871c0.041-0.481-0.318-0.871-0.801-0.871h-5.103C275.777,229.106,275.353,229.497,275.312,229.978z
					"/>
				<path style="opacity:0.5;fill:#FFFFFF;" d="M251.245,225.333h24.315c0.483,0,0.907-0.39,0.948-0.871
					c0.041-0.481-0.318-0.871-0.801-0.871h-24.315c-0.483,0-0.907,0.39-0.948,0.871
					C250.404,224.943,250.763,225.333,251.245,225.333z"/>
				<path style="fill:#FFFFFF;" d="M293.627,225.333h18.654c0.483,0,0.907-0.39,0.948-0.871c0.041-0.481-0.318-0.871-0.801-0.871
					h-18.654c-0.483,0-0.907,0.39-0.948,0.871C292.785,224.943,293.144,225.333,293.627,225.333z"/>
			</g>
			<g>
				<path style="opacity:0.5;fill:#FFFFFF;" d="M332.659,267.717h-42.161h-5.925h-6.014c-0.483,0-0.907,0.39-0.948,0.871
					c-0.041,0.481,0.318,0.871,0.801,0.871h6.014h5.925h42.161c0.483,0,0.907-0.39,0.948-0.871
					C333.5,268.107,333.142,267.717,332.659,267.717z"/>
				<path style="fill:#FFFFFF;" d="M344.539,267.717h-6.688c-0.483,0-0.907,0.39-0.948,0.871c-0.041,0.481,0.318,0.871,0.801,0.871
					h6.688c0.483,0,0.907-0.39,0.948-0.871C345.381,268.107,345.022,267.717,344.539,267.717z"/>
				<path style="fill:#FFFFFF;" d="M295.189,263.944h21.781c0.483,0,0.907-0.39,0.948-0.871c0.041-0.481-0.318-0.871-0.801-0.871
					h-21.781c-0.483,0-0.907,0.39-0.948,0.871C294.348,263.554,294.706,263.944,295.189,263.944z"/>
				<path style="opacity:0.5;fill:#FFFFFF;" d="M332.977,263.944c0.483,0,0.907-0.39,0.948-0.871
					c0.041-0.481-0.318-0.871-0.801-0.871h-12.352c-0.483,0-0.907,0.39-0.948,0.871c-0.041,0.481,0.318,0.871,0.801,0.871H332.977z"
					/>
				<path style="opacity:0.5;fill:#FFFFFF;" d="M345.006,262.201h-6.574c-0.483,0-0.907,0.39-0.948,0.871
					c-0.041,0.481,0.318,0.871,0.801,0.871h6.574c0.483,0,0.907-0.39,0.948-0.871C345.847,262.591,345.489,262.201,345.006,262.201z
					"/>
				<path style="fill:#FFFFFF;" d="M333.678,256.685h-29.133c-0.483,0-0.907,0.39-0.948,0.871c-0.041,0.481,0.318,0.871,0.801,0.871
					h29.133c0.483,0,0.907-0.39,0.948-0.871C334.52,257.076,334.161,256.685,333.678,256.685z"/>
				<path style="fill:#FFFFFF;" d="M345.473,256.685h-6.646c-0.483,0-0.907,0.39-0.948,0.871c-0.041,0.481,0.318,0.871,0.8,0.871
					h6.646c0.483,0,0.907-0.39,0.948-0.871C346.314,257.076,345.955,256.685,345.473,256.685z"/>
				<path style="opacity:0.5;fill:#FFFFFF;" d="M318.025,252.041c0.041-0.481-0.318-0.871-0.801-0.871h-29.698
					c-0.483,0-0.907,0.39-0.948,0.871s0.318,0.872,0.801,0.872h29.698C317.56,252.913,317.984,252.522,318.025,252.041z"/>
				<path style="opacity:0.5;fill:#FFFFFF;" d="M322.609,251.17c-0.483,0-0.907,0.39-0.948,0.871
					c-0.041,0.481,0.318,0.872,0.801,0.872h11.52c0.483,0,0.907-0.39,0.948-0.872c0.041-0.481-0.318-0.871-0.801-0.871H322.609z"/>
				<path style="fill:#FFFFFF;" d="M345.939,251.17h-6.569c-0.483,0-0.907,0.39-0.948,0.871c-0.041,0.481,0.318,0.872,0.801,0.872
					h6.569c0.483,0,0.907-0.39,0.948-0.872C346.78,251.56,346.422,251.17,345.939,251.17z"/>
				<path style="fill:#FFFFFF;" d="M324.565,247.397h5.715c0.483,0,0.907-0.39,0.948-0.871c0.041-0.481-0.318-0.871-0.801-0.871
					h-5.715c-0.483,0-0.907,0.39-0.948,0.871C323.724,247.007,324.082,247.397,324.565,247.397z"/>
				<path style="opacity:0.5;fill:#FFFFFF;" d="M334.349,247.397h11.91c0.483,0,0.907-0.39,0.948-0.871
					c0.041-0.481-0.318-0.871-0.8-0.871h-11.91c-0.483,0-0.907,0.39-0.948,0.871C333.508,247.007,333.866,247.397,334.349,247.397z"
					/>
			</g>
			<g>
				<path style="fill:#FFFFFF;" d="M260.171,153.765c0.11,0.086,0.242,0.127,0.377,0.127c0.201,0,0.408-0.092,0.551-0.266
					c0.239-0.291,0.212-0.7-0.062-0.913l-1.815-1.419l2.051-1.424c0.309-0.214,0.405-0.624,0.215-0.914
					c-0.191-0.291-0.597-0.351-0.905-0.137l-2.811,1.951c-0.178,0.123-0.293,0.319-0.31,0.526c-0.017,0.208,0.065,0.403,0.223,0.525
					L260.171,153.765z"/>
				<path style="fill:#FFFFFF;" d="M269.255,151.285l-2.051,1.424c-0.309,0.214-0.405,0.624-0.215,0.914
					c0.114,0.174,0.305,0.265,0.505,0.265c0.136,0,0.276-0.042,0.4-0.128l2.811-1.951c0.178-0.123,0.293-0.319,0.31-0.526
					c0.017-0.208-0.065-0.402-0.223-0.526l-2.486-1.944c-0.273-0.214-0.689-0.151-0.928,0.139c-0.239,0.291-0.212,0.7,0.062,0.914
					L269.255,151.285z"/>
				<path style="fill:#FFFFFF;" d="M263.112,153.853c0.07,0.025,0.143,0.037,0.215,0.037c0.27,0,0.537-0.167,0.655-0.436
					l1.711-3.896c0.15-0.34,0.002-0.714-0.329-0.834c-0.33-0.12-0.721,0.058-0.87,0.398l-1.711,3.896
					C262.633,153.36,262.781,153.733,263.112,153.853z"/>
				<path style="opacity:0.5;fill:#FFFFFF;" d="M274.026,154.11h3.459c0.483,0,0.907-0.39,0.948-0.871
					c0.041-0.481-0.318-0.871-0.801-0.871h-3.459c-0.483,0-0.907,0.39-0.948,0.871C273.185,153.72,273.543,154.11,274.026,154.11z"
					/>
				<path style="opacity:0.5;fill:#FFFFFF;" d="M318.294,161.019h4.673c0.483,0,0.907-0.39,0.948-0.872
					c0.041-0.481-0.318-0.871-0.801-0.871h-4.673c-0.483,0-0.907,0.39-0.948,0.871C317.453,160.628,317.811,161.019,318.294,161.019
					z"/>
				<path style="fill:#FFFFFF;" d="M267.766,160.147c-0.041,0.481,0.318,0.872,0.801,0.872h43.714c0.483,0,0.907-0.39,0.948-0.872
					c0.041-0.481-0.318-0.871-0.801-0.871h-43.714C268.231,159.276,267.807,159.666,267.766,160.147z"/>
				<path style="opacity:0.5;fill:#FFFFFF;" d="M256.686,161.019h6.688c0.483,0,0.907-0.39,0.948-0.872
					c0.041-0.481-0.318-0.871-0.801-0.871h-6.688c-0.483,0-0.907,0.39-0.948,0.871C255.845,160.628,256.203,161.019,256.686,161.019
					z"/>
				<path style="fill:#FFFFFF;" d="M301.518,166.534c0.483,0,0.907-0.39,0.948-0.871c0.041-0.481-0.318-0.871-0.801-0.871h-17.409
					c-0.483,0-0.907,0.39-0.948,0.871c-0.041,0.481,0.318,0.871,0.801,0.871H301.518z"/>
				<path style="fill:#FFFFFF;" d="M268.101,166.534h12.352c0.483,0,0.907-0.39,0.948-0.871c0.041-0.481-0.318-0.871-0.801-0.871
					h-12.352c-0.483,0-0.907,0.39-0.948,0.871C267.26,166.144,267.618,166.534,268.101,166.534z"/>
				<path style="opacity:0.5;fill:#FFFFFF;" d="M256.22,166.534h6.573c0.483,0,0.907-0.39,0.948-0.871
					c0.041-0.481-0.318-0.871-0.801-0.871h-6.573c-0.483,0-0.907,0.39-0.948,0.871C255.378,166.144,255.737,166.534,256.22,166.534z
					"/>
				<path style="fill:#FFFFFF;" d="M293.256,171.179c0.041-0.481-0.318-0.871-0.801-0.871h-24.761c-0.483,0-0.907,0.39-0.948,0.871
					c-0.041,0.481,0.318,0.871,0.801,0.871h24.761C292.791,172.05,293.216,171.66,293.256,171.179z"/>
				<path style="opacity:0.5;fill:#FFFFFF;" d="M255.753,172.05h6.646c0.483,0,0.907-0.39,0.948-0.871
					c0.041-0.481-0.318-0.871-0.801-0.871H255.9c-0.483,0-0.907,0.39-0.948,0.871C254.912,171.66,255.27,172.05,255.753,172.05z"/>
				<path style="fill:#FFFFFF;" d="M284.001,177.566h25.326c0.483,0,0.907-0.39,0.948-0.871c0.041-0.481-0.318-0.871-0.801-0.871
					h-25.326c-0.483,0-0.907,0.39-0.948,0.871C283.16,177.176,283.518,177.566,284.001,177.566z"/>
				<path style="fill:#FFFFFF;" d="M267.243,175.823c-0.483,0-0.907,0.39-0.948,0.871c-0.041,0.481,0.318,0.871,0.801,0.871h11.52
					c0.483,0,0.907-0.39,0.948-0.871s-0.318-0.871-0.801-0.871H267.243z"/>
				<path style="opacity:0.5;fill:#FFFFFF;" d="M255.286,177.566h6.569c0.483,0,0.907-0.39,0.948-0.871
					c0.041-0.481-0.318-0.871-0.8-0.871h-6.569c-0.483,0-0.907,0.39-0.948,0.871S254.803,177.566,255.286,177.566z"/>
				<path style="fill:#FFFFFF;" d="M276.66,181.339h-5.714c-0.483,0-0.907,0.39-0.948,0.871c-0.041,0.481,0.318,0.871,0.801,0.871
					h5.714c0.483,0,0.907-0.39,0.948-0.871C277.501,181.729,277.143,181.339,276.66,181.339z"/>
				<path style="fill:#FFFFFF;" d="M266.877,181.339h-11.91c-0.483,0-0.907,0.39-0.948,0.871c-0.041,0.481,0.318,0.871,0.801,0.871
					h11.91c0.483,0,0.907-0.39,0.948-0.871C267.718,181.729,267.36,181.339,266.877,181.339z"/>
				<path style="fill:#FFFFFF;" d="M303.813,187.726c-0.041,0.481,0.318,0.871,0.801,0.871h46.619c0.483,0,0.907-0.39,0.948-0.871
					c0.041-0.481-0.318-0.871-0.801-0.871h-46.619C304.278,186.855,303.853,187.245,303.813,187.726z"/>
				<path style="opacity:0.5;fill:#FFFFFF;" d="M291.22,186.855c-0.483,0-0.907,0.39-0.948,0.871
					c-0.041,0.481,0.318,0.871,0.8,0.871h8.825c0.483,0,0.907-0.39,0.948-0.871c0.041-0.481-0.318-0.871-0.801-0.871H291.22z"/>
				<path style="opacity:0.5;fill:#FFFFFF;" d="M350.913,192.37h-11.357c-0.483,0-0.907,0.39-0.948,0.871
					c-0.041,0.481,0.318,0.871,0.801,0.871h11.357c0.483,0,0.907-0.39,0.948-0.871C351.755,192.761,351.396,192.37,350.913,192.37z"
					/>
				<path style="fill:#FFFFFF;" d="M334.713,193.242c0.041-0.481-0.318-0.871-0.801-0.871h-47.531c-0.483,0-0.907,0.39-0.948,0.871
					c-0.041,0.481,0.318,0.871,0.801,0.871h47.531C334.248,194.113,334.672,193.723,334.713,193.242z"/>
				<path style="fill:#FFFFFF;" d="M350.447,197.886h-20.591c-0.483,0-0.907,0.39-0.948,0.871c-0.041,0.481,0.318,0.871,0.801,0.871
					h20.591c0.483,0,0.907-0.39,0.948-0.871C351.288,198.276,350.93,197.886,350.447,197.886z"/>
				<path style="opacity:0.5;fill:#FFFFFF;" d="M320.011,197.886c-0.483,0-0.907,0.39-0.948,0.871
					c-0.041,0.481,0.318,0.871,0.801,0.871h5.102c0.483,0,0.907-0.39,0.948-0.871c0.041-0.481-0.318-0.871-0.801-0.871H320.011z"/>
				<path style="fill:#FFFFFF;" d="M349.98,203.402h-40.926c-0.483,0-0.907,0.39-0.948,0.872c-0.041,0.481,0.318,0.871,0.801,0.871
					h40.926c0.483,0,0.907-0.39,0.948-0.871S350.463,203.402,349.98,203.402z"/>
				<path style="fill:#FFFFFF;" d="M290.988,203.402h-14.282c-0.483,0-0.907,0.39-0.948,0.872c-0.041,0.481,0.318,0.871,0.801,0.871
					h14.282c0.483,0,0.907-0.39,0.948-0.871C291.829,203.792,291.471,203.402,290.988,203.402z"/>
			</g>
		</g>
		<g>
			<path style="fill:#407BFF;" d="M344,320.43l-5.38,60.5l-0.02,0.21H233l0.02-0.21l11.42-128.58l5.8,1.52l28.29,7.37l1.57,0.41
				l1.93,0.5l2.38,0.62l1.48,0.39l18.95,4.94l0.12,0.03c1.38,0.36,2.73,0.77,4.05,1.23c9.96,3.47,18.36,9.76,24.44,17.79
				c2.7,3.57,4.94,7.49,6.65,11.66C342.87,305.51,344.26,312.85,344,320.43z"/>
			<path style="opacity:0.8;fill:#FFFFFF;enable-background:new    ;" d="M344,320.43l-5.38,60.5l-0.02,0.21H233l0.02-0.21
				l11.42-128.58l5.8,1.52l28.29,7.37l1.57,0.41l1.93,0.5l2.38,0.62l1.48,0.39l18.95,4.94l0.12,0.03c1.38,0.36,2.73,0.77,4.05,1.23
				c9.96,3.47,18.36,9.76,24.44,17.79c2.7,3.57,4.94,7.49,6.65,11.66C342.87,305.51,344.26,312.85,344,320.43z"/>
			<g>
				<polygon style="opacity:0.6;enable-background:new    ;" points="285.89,263.16 249.42,263.16 249.59,261.24 250.24,253.87 
					278.53,261.24 280.1,261.65 282.03,262.15 284.41,262.77 				"/>
				<polygon style="opacity:0.5;enable-background:new    ;" points="285.89,263.16 249.42,263.16 249.59,261.24 278.53,261.24 
					280.1,261.65 282.03,262.15 284.41,262.77 				"/>
				<polygon style="opacity:0.6;fill:#FFFFFF;enable-background:new    ;" points="282.03,262.15 281.94,263.16 249.42,263.16 
					249.59,261.24 278.53,261.24 280.1,261.65 				"/>
				<path style="fill:#FFFFFF;" d="M284.41,262.77c-0.04,0.13-0.09,0.26-0.16,0.39c-0.42,0.81-1.28,1.38-2.22,1.38
					c-0.93,0-1.69-0.57-1.96-1.38c-0.1-0.28-0.14-0.58-0.11-0.9c0.02-0.21,0.07-0.42,0.14-0.61l1.93,0.5L284.41,262.77z"/>
				<g>
					<path style="opacity:0.4;fill:#407BFF;enable-background:new    ;" d="M296.18,277.261h-46.212
						c-0.994,0-1.729-0.805-1.641-1.798l0,0c0.088-0.993,0.966-1.798,1.961-1.798h46.212c0.995,0,1.729,0.805,1.641,1.798l0,0
						C298.052,276.456,297.174,277.261,296.18,277.261z"/>
					<path style="opacity:0.4;fill:#407BFF;enable-background:new    ;" d="M309.04,269.9c-0.09,0.99-0.97,1.79-1.96,1.79h-56.62
						c-0.99,0-1.73-0.8-1.64-1.79c0.09-1,0.97-1.8,1.96-1.8h54.06l0.12,0.03c1.38,0.36,2.73,0.77,4.05,1.23
						C309.04,269.53,309.06,269.71,309.04,269.9z"/>
				</g>
			</g>
			<g>
				<path style="opacity:0.3;fill:#407BFF;enable-background:new    ;" d="M340.1,298.81l-2.58,29.06h-93.85l3.62-40.72h86.16
					C336.15,290.72,338.39,294.64,340.1,298.81z"/>
				<path style="opacity:0.5;fill:#FFFFFF;enable-background:new    ;" d="M309.478,294.237h-7.358c-0.9,0-1.564-0.728-1.485-1.627
					l0,0c0.08-0.898,0.874-1.627,1.774-1.627h7.358c0.9,0,1.565,0.728,1.485,1.627l0,0
					C311.172,293.509,310.377,294.237,309.478,294.237z"/>
				<path style="opacity:0.5;fill:#FFFFFF;enable-background:new    ;" d="M329.821,299.471h-28.167c-0.9,0-1.564-0.728-1.485-1.627
					l0,0c0.08-0.898,0.874-1.627,1.774-1.627h28.167c0.9,0,1.564,0.728,1.485,1.627l0,0
					C331.515,298.743,330.721,299.471,329.821,299.471z"/>
				<g>
					<polygon style="opacity:0.3;fill:#407BFF;enable-background:new    ;" points="291.096,324.038 248.442,324.038 
						251.379,290.984 294.034,290.984 					"/>
					<polygon style="opacity:0.5;fill:#FFFFFF;enable-background:new    ;" points="249.09,316.745 261.659,307.511 
						268.253,312.725 282.18,302.758 292.15,312.184 291.096,324.038 248.442,324.038 					"/>
					<path style="opacity:0.5;fill:#FFFFFF;enable-background:new    ;" d="M263.374,298.769c-0.182,1.948-1.82,3.528-3.659,3.528
						c-1.839,0-3.182-1.579-3-3.528c0.182-1.948,1.82-3.527,3.659-3.527C262.213,295.242,263.556,296.821,263.374,298.769z"/>
				</g>
			</g>
			<g>
				<polygon style="opacity:0.3;fill:#407BFF;enable-background:new    ;" points="333.437,373.879 239.582,373.879 
					243.201,333.151 337.056,333.151 				"/>
				<path style="opacity:0.5;fill:#FFFFFF;enable-background:new    ;" d="M305.39,340.241h-7.358c-0.9,0-1.564-0.728-1.485-1.627
					l0,0c0.08-0.898,0.874-1.627,1.774-1.627h7.358c0.9,0,1.565,0.728,1.485,1.627l0,0
					C307.084,339.513,306.29,340.241,305.39,340.241z"/>
				<path style="opacity:0.5;fill:#FFFFFF;enable-background:new    ;" d="M325.733,345.475h-28.167c-0.9,0-1.564-0.728-1.485-1.627
					l0,0c0.08-0.898,0.874-1.627,1.774-1.627h28.167c0.9,0,1.564,0.728,1.485,1.627l0,0
					C327.427,344.747,326.633,345.475,325.733,345.475z"/>
				<g>
					<polygon style="opacity:0.3;fill:#407BFF;enable-background:new    ;" points="287.009,370.042 244.354,370.042 
						247.291,336.988 289.946,336.988 					"/>
					<polygon style="opacity:0.5;fill:#FFFFFF;enable-background:new    ;" points="245.002,362.749 257.572,353.515 
						264.165,358.729 278.092,348.762 288.062,358.187 287.009,370.042 244.354,370.042 					"/>
					<path style="opacity:0.5;fill:#FFFFFF;enable-background:new    ;" d="M259.286,344.773c-0.182,1.948-1.82,3.527-3.659,3.527
						s-3.182-1.579-3-3.527c0.182-1.948,1.821-3.528,3.659-3.528C258.125,341.246,259.468,342.825,259.286,344.773z"/>
				</g>
			</g>
		</g>
		<path style="opacity:0.2;enable-background:new    ;" d="M323.99,278.76c-27.68-13.82-71.48,13.38-72.76,13.85
			c-4.41,1.64-9.54-0.56-14.18-3.87l3.6-41.21l2.1-0.13C242.75,247.4,302.15,261.99,323.99,278.76z"/>
		<g>
			<path style="fill:#407BFF;" d="M179.518,234.622c0,0,6.405,3.847,9.876,5.516c1.947,0.936,9.32-0.414,15.254,3.389
				c5.734,3.675,5.092,7.358,7.516,10.627c7.323,9.872,22.977,9.561,22.977,9.561s66.713-12.545,100.932,27.26
				C336.074,290.974,310.749,241.592,179.518,234.622z"/>
			<path style="opacity:0.4;fill:#FFFFFF;enable-background:new    ;" d="M179.518,234.622c0,0,6.405,3.847,9.876,5.516
				c1.947,0.936,9.32-0.414,15.254,3.389c5.734,3.675,5.092,7.358,7.516,10.627c7.323,9.872,22.977,9.561,22.977,9.561
				s66.713-12.545,100.932,27.26C336.074,290.974,310.749,241.592,179.518,234.622z"/>
		</g>
	</g>
</g>
<g id="Speech_bubble">
	<g>
		<path style="fill:#407BFF;" d="M144.991,140.469H98.549c-2.638,0-4.776,2.138-4.776,4.776v25.121c0,2.638,2.138,4.776,4.776,4.776
			h32.314c1.246,2.966,4.79,8.913,13.879,11.66c0,0-5.449-4.937-5.175-11.66h5.423c2.638,0,4.776-2.139,4.776-4.776v-25.121
			C149.767,142.608,147.629,140.469,144.991,140.469z"/>
		<path style="opacity:0.6;fill:#FFFFFF;enable-background:new    ;" d="M144.991,140.469H98.549c-2.638,0-4.776,2.138-4.776,4.776
			v25.121c0,2.638,2.138,4.776,4.776,4.776h32.314c1.246,2.966,4.79,8.913,13.879,11.66c0,0-5.449-4.937-5.175-11.66h5.423
			c2.638,0,4.776-2.139,4.776-4.776v-25.121C149.767,142.608,147.629,140.469,144.991,140.469z"/>
		<g style="opacity:0.5;">
			<g>
				<path d="M99.474,148.841c0-1.854,0.973-2.961,2.32-2.961c1.347,0,2.328,1.106,2.328,2.961s-0.982,2.96-2.328,2.96
					C100.447,151.801,99.474,150.695,99.474,148.841z M103.507,148.841c0-1.555-0.699-2.412-1.713-2.412
					c-1.015,0-1.714,0.857-1.714,2.412c0,1.555,0.699,2.412,1.714,2.412C102.808,151.253,103.507,150.395,103.507,148.841z"/>
				<path d="M106.572,145.93v5.821h-0.599v-5.289h-1.372v-0.532H106.572z"/>
				<path d="M107.959,148.841c0-1.854,0.973-2.961,2.32-2.961c1.347,0,2.329,1.106,2.329,2.961s-0.982,2.96-2.329,2.96
					C108.932,151.801,107.959,150.695,107.959,148.841z M111.992,148.841c0-1.555-0.699-2.412-1.713-2.412
					c-1.015,0-1.714,0.857-1.714,2.412c0,1.555,0.699,2.412,1.714,2.412C111.294,151.253,111.992,150.395,111.992,148.841z"/>
				<path d="M113.461,148.841c0-1.854,0.973-2.961,2.321-2.961c1.347,0,2.329,1.106,2.329,2.961s-0.982,2.96-2.329,2.96
					C114.434,151.801,113.461,150.695,113.461,148.841z M117.494,148.841c0-1.555-0.699-2.412-1.713-2.412
					c-1.015,0-1.713,0.857-1.713,2.412c0,1.555,0.699,2.412,1.713,2.412C116.795,151.253,117.494,150.395,117.494,148.841z"/>
				<path d="M120.56,145.93v5.821h-0.599v-5.289h-1.372v-0.532H120.56z"/>
				<path d="M123.56,145.93v5.821h-0.599v-5.289h-1.372v-0.532H123.56z"/>
				<path d="M126.56,145.93v5.821h-0.599v-5.289h-1.372v-0.532H126.56z"/>
				<path d="M127.947,148.841c0-1.854,0.973-2.961,2.32-2.961c1.347,0,2.328,1.106,2.328,2.961s-0.982,2.96-2.328,2.96
					C128.92,151.801,127.947,150.695,127.947,148.841z M131.98,148.841c0-1.555-0.699-2.412-1.713-2.412
					c-1.015,0-1.714,0.857-1.714,2.412c0,1.555,0.699,2.412,1.714,2.412C131.281,151.253,131.98,150.395,131.98,148.841z"/>
				<path d="M133.448,148.841c0-1.854,0.973-2.961,2.321-2.961c1.347,0,2.328,1.106,2.328,2.961s-0.982,2.96-2.328,2.96
					C134.422,151.801,133.448,150.695,133.448,148.841z M137.482,148.841c0-1.555-0.699-2.412-1.713-2.412
					c-1.015,0-1.714,0.857-1.714,2.412c0,1.555,0.699,2.412,1.714,2.412C136.783,151.253,137.482,150.395,137.482,148.841z"/>
				<path d="M140.548,145.93v5.821h-0.599v-5.289h-1.372v-0.532H140.548z"/>
				<path d="M143.547,145.93v5.821h-0.599v-5.289h-1.372v-0.532H143.547z"/>
			</g>
			<g>
				<path d="M101.078,154.357v5.821h-0.599v-5.289h-1.372v-0.532H101.078z"/>
				<path d="M102.466,157.267c0-1.854,0.973-2.961,2.32-2.961c1.347,0,2.329,1.106,2.329,2.961s-0.982,2.96-2.329,2.96
					C103.439,160.227,102.466,159.121,102.466,157.267z M106.499,157.267c0-1.555-0.699-2.412-1.713-2.412
					c-1.015,0-1.714,0.857-1.714,2.412c0,1.555,0.699,2.412,1.714,2.412C105.8,159.679,106.499,158.822,106.499,157.267z"/>
				<path d="M107.967,157.267c0-1.854,0.973-2.961,2.321-2.961c1.347,0,2.329,1.106,2.329,2.961s-0.982,2.96-2.329,2.96
					C108.94,160.227,107.967,159.121,107.967,157.267z M112.001,157.267c0-1.555-0.699-2.412-1.713-2.412
					c-1.015,0-1.714,0.857-1.714,2.412c0,1.555,0.699,2.412,1.714,2.412C111.302,159.679,112.001,158.822,112.001,157.267z"/>
				<path d="M115.066,154.357v5.821h-0.599v-5.289h-1.372v-0.532H115.066z"/>
				<path d="M118.066,154.357v5.821h-0.599v-5.289h-1.372v-0.532H118.066z"/>
				<path d="M121.066,154.357v5.821h-0.599v-5.289h-1.372v-0.532H121.066z"/>
				<path d="M122.454,157.267c0-1.854,0.973-2.961,2.32-2.961c1.347,0,2.328,1.106,2.328,2.961s-0.982,2.96-2.328,2.96
					C123.426,160.227,122.454,159.121,122.454,157.267z M126.487,157.267c0-1.555-0.699-2.412-1.713-2.412
					c-1.015,0-1.714,0.857-1.714,2.412c0,1.555,0.699,2.412,1.714,2.412C125.788,159.679,126.487,158.822,126.487,157.267z"/>
				<path d="M127.955,157.267c0-1.854,0.973-2.961,2.321-2.961c1.347,0,2.329,1.106,2.329,2.961s-0.982,2.96-2.329,2.96
					C128.928,160.227,127.955,159.121,127.955,157.267z M131.989,157.267c0-1.555-0.699-2.412-1.713-2.412
					c-1.015,0-1.714,0.857-1.714,2.412c0,1.555,0.699,2.412,1.714,2.412C131.29,159.679,131.989,158.822,131.989,157.267z"/>
				<path d="M135.053,154.357v5.821h-0.599v-5.289h-1.372v-0.532H135.053z"/>
				<path d="M138.054,154.357v5.821h-0.599v-5.289h-1.372v-0.532H138.054z"/>
				<path d="M139.441,157.267c0-1.854,0.973-2.961,2.321-2.961c1.347,0,2.329,1.106,2.329,2.961s-0.982,2.96-2.329,2.96
					C140.414,160.227,139.441,159.121,139.441,157.267z M143.474,157.267c0-1.555-0.699-2.412-1.713-2.412
					c-1.015,0-1.714,0.857-1.714,2.412c0,1.555,0.699,2.412,1.714,2.412C142.775,159.679,143.474,158.822,143.474,157.267z"/>
			</g>
			<g>
				<path d="M99.474,165.693c0-1.854,0.973-2.961,2.32-2.961c1.347,0,2.328,1.106,2.328,2.961s-0.982,2.96-2.328,2.96
					C100.447,168.654,99.474,167.548,99.474,165.693z M103.507,165.693c0-1.555-0.699-2.412-1.713-2.412
					c-1.015,0-1.714,0.857-1.714,2.412c0,1.555,0.699,2.412,1.714,2.412C102.808,168.105,103.507,167.248,103.507,165.693z"/>
				<path d="M104.975,165.693c0-1.854,0.973-2.961,2.321-2.961c1.347,0,2.328,1.106,2.328,2.961s-0.982,2.96-2.328,2.96
					C105.948,168.654,104.975,167.548,104.975,165.693z M109.009,165.693c0-1.555-0.699-2.412-1.713-2.412
					c-1.015,0-1.714,0.857-1.714,2.412c0,1.555,0.699,2.412,1.714,2.412C108.31,168.105,109.009,167.248,109.009,165.693z"/>
				<path d="M112.074,162.783v5.821h-0.599v-5.289h-1.372v-0.532H112.074z"/>
				<path d="M115.074,162.783v5.821h-0.599v-5.289h-1.372v-0.532H115.074z"/>
				<path d="M116.462,165.693c0-1.854,0.973-2.961,2.32-2.961c1.347,0,2.328,1.106,2.328,2.961s-0.982,2.96-2.328,2.96
					C117.434,168.654,116.462,167.548,116.462,165.693z M120.495,165.693c0-1.555-0.699-2.412-1.713-2.412
					c-1.015,0-1.714,0.857-1.714,2.412c0,1.555,0.699,2.412,1.714,2.412C119.796,168.105,120.495,167.248,120.495,165.693z"/>
				<path d="M121.963,165.693c0-1.854,0.973-2.961,2.321-2.961c1.347,0,2.328,1.106,2.328,2.961s-0.982,2.96-2.328,2.96
					C122.936,168.654,121.963,167.548,121.963,165.693z M125.997,165.693c0-1.555-0.699-2.412-1.713-2.412
					c-1.015,0-1.714,0.857-1.714,2.412c0,1.555,0.699,2.412,1.714,2.412C125.298,168.105,125.997,167.248,125.997,165.693z"/>
				<path d="M129.061,162.783v5.821h-0.599v-5.289h-1.372v-0.532H129.061z"/>
				<path d="M132.062,162.783v5.821h-0.599v-5.289h-1.372v-0.532H132.062z"/>
				<path d="M135.062,162.783v5.821h-0.599v-5.289h-1.372v-0.532H135.062z"/>
				<path d="M136.449,165.693c0-1.854,0.973-2.961,2.32-2.961c1.347,0,2.329,1.106,2.329,2.961s-0.982,2.96-2.329,2.96
					C137.422,168.654,136.449,167.548,136.449,165.693z M140.483,165.693c0-1.555-0.699-2.412-1.713-2.412
					c-1.015,0-1.714,0.857-1.714,2.412c0,1.555,0.699,2.412,1.714,2.412C139.784,168.105,140.483,167.248,140.483,165.693z"/>
				<path d="M143.547,162.783v5.821h-0.599v-5.289h-1.372v-0.532H143.547z"/>
			</g>
		</g>
	</g>
</g>
<g id="Character">
	<g>
		<path style="fill:#EBB376;" d="M185.486,239.388c0,0,1.824-2.011,3.665-2.935c1.841-0.924,4.752-1.056,4.752-1.056l0.767,5.254
			c0,0-2.481,1.924-3.832,2.491c-1.351,0.567-4.405,0.304-4.405,0.304L185.486,239.388z"/>
		<path style="fill:#EBB376;" d="M154.755,227.446c0,0,6.879,9.883,9.488,11.601c2.609,1.718,21.243,0.341,21.243,0.341l0.947,4.058
			c0,0-19.125,3.499-23.146,1.35c-4.021-2.149-14.091-13.29-14.091-13.29L154.755,227.446z"/>
		<path style="opacity:0.2;enable-background:new    ;" d="M185.486,239.388c0,0,1.824-2.011,3.665-2.935
			c1.841-0.924,4.752-1.056,4.752-1.056l0.767,5.254c0,0-2.481,1.924-3.832,2.491c-1.351,0.567-4.405,0.304-4.405,0.304
			L185.486,239.388z"/>
		<path style="opacity:0.2;enable-background:new    ;" d="M154.755,227.446c0,0,6.879,9.883,9.488,11.601
			c2.609,1.718,21.243,0.341,21.243,0.341l0.947,4.058c0,0-19.125,3.499-23.146,1.35c-4.021-2.149-14.091-13.29-14.091-13.29
			L154.755,227.446z"/>
		<g>
			<path style="fill:none;stroke:#263238;stroke-width:0.5;stroke-linecap:round;stroke-linejoin:round;stroke-miterlimit:10;" d="
				M181.199,202.653c0,0-1.808-0.388-2.901,0.751"/>
			<path style="fill:#D58745;" d="M179.592,206.827c0,0,0.761,1.773,1.67,2.853c0,0-0.629,0.838-1.775,0.594L179.592,206.827z"/>
			<g>
				<path style="fill:#263238;" d="M180.867,205.134c-0.032,0.535-0.346,0.952-0.703,0.931c-0.357-0.021-0.621-0.472-0.589-1.007
					c0.031-0.535,0.346-0.952,0.703-0.931C180.634,204.148,180.898,204.599,180.867,205.134z"/>
				<path style="fill:#263238;" d="M180.127,204.144l1.191-0.388C181.318,203.756,180.681,204.702,180.127,204.144z"/>
			</g>
			<path style="fill:#EBB376;" d="M164.937,215.11c0.057,0.066,0.122,0.132,0.189,0.183c0.883,0.831,1.916,1.653,3.154,2.12
				c3.463,1.318,5.973,1.165,7.79-0.233c0.008,0.001,0.008,0.001,0.008,0.001c2.567-2.12,3.718-6.343,4.117-11.572
				c0.19-2.398,0.135-4.514-0.298-6.214c-0.006-0.017,0.002-0.077-0.004-0.094c-0.023-0.069-0.035-0.163-0.059-0.232
				c-0.669-2.384-2.094-4.065-4.607-5.038c-0.869-0.334-1.872-0.592-3.019-0.767C162.111,191.765,157.982,208.266,164.937,215.11z"
				/>
			<path style="opacity:0.2;enable-background:new    ;" d="M165.126,215.293c0.883,0.831,1.935,1.512,3.173,1.979
				c3.463,1.318,5.99,1.048,7.81-0.375c-1.809,0.147-4.192-0.033-6.343-1.41C168.409,214.624,166.752,214.742,165.126,215.293z"/>
			<path style="fill:#263238;" d="M168.599,190.089c0,0,7.002-0.779,10.367,2.457c3.93,3.779,5.133,7.294-0.741,11.683
				c0,0-10.853-5.248-14.737-4.988c-3.884,0.259-6.736,0.988-6.736,0.988C156.991,192.617,165.032,188.035,168.599,190.089z"/>
			<path style="fill:#EBB376;" d="M170.055,217.824c0,0-4.432,2.039-1.875,6.638l-14.609-4.088c0,0,6.927-3.024,7.485-7.903
				C161.057,212.47,168.736,211.849,170.055,217.824z"/>
			<path style="fill:#263238;" d="M170.055,191.767c0,0-1.714-11.473-10.549-11.209c-8.835,0.264-9.89,9.494-4.352,13.451
				C160.693,197.965,169.396,198.492,170.055,191.767z"/>
			<path style="fill:#263238;" d="M157.528,194.273c0,0-7.477-1.451-7.761,5.143c0,0,1.035-1.959,2.882-2.496
				c0,0-2.592,1.309-0.9,4.738c0,0-0.54-2.127,2.813-2.913c3.353-0.786,11.802,0.935,11.011-3.549
				C164.781,190.712,157.528,194.273,157.528,194.273z"/>
			<path style="fill:none;stroke:#263238;stroke-width:0.5;stroke-linecap:round;stroke-linejoin:round;stroke-miterlimit:10;" d="
				M168.736,191.503c0,0,0.659-13.451-10.418-12.791"/>
			<path style="fill:none;stroke:#263238;stroke-width:0.5;stroke-linecap:round;stroke-linejoin:round;stroke-miterlimit:10;" d="
				M160.902,210.013c0,0-6.98-5.347-4.452-11.269"/>
			<path style="fill:none;stroke:#263238;stroke-width:0.5;stroke-linecap:round;stroke-linejoin:round;stroke-miterlimit:10;" d="
				M156.752,194.175c0,0-6.74-1.375-8.191,3.119"/>
			<path style="fill:#263238;" d="M179.911,199.329c0,0-0.42,7.169-7.561,9.289c0,0-3.901,6.97-8.164,6.488
				c-5.812-0.656-9.781-9.602-6.618-17.719C161.671,186.859,178.284,188.247,179.911,199.329z"/>
			<path style="fill:#EBB376;" d="M176.035,207.051c0.15-1.107-0.483-3.087-2.238-3.072c-1.816,0.016-3.407,4.267,0.832,5.851
				C175.237,210.056,175.721,209.359,176.035,207.051z"/>
		</g>
		<path style="fill:#EBB376;" d="M184.652,409.587l4.742-1.294c-1.738-23.918-6.431-52.781-10.419-74.423
			c-0.627-3.393-1.23-6.599-1.81-9.587c-0.279-1.42-0.542-2.784-0.801-4.099c-1.268-6.486-2.335-11.611-2.999-14.779
			c-0.486-2.31-0.762-3.579-0.762-3.579l-17.054,4.946l1.42,4.297l4.687,14.187l0.532,1.623l3.104,9.365l5.269,15.949
			C171.292,376.588,184.652,409.587,184.652,409.587z"/>
		<path style="fill:#EBB376;" d="M143.288,408.43l4.899-0.471c2.559-25.941,2.661-58.237,2.312-80.679
			c-0.058-3.477-0.122-6.727-0.189-9.669c-0.003-0.152-0.013-0.292-0.014-0.435c-0.142-5.842-0.294-10.487-0.401-13.428
			c-0.095-2.301-0.145-3.564-0.145-3.564l-17.65,1.973l1.098,7.342l1.607,10.79l0.317,2.114l1.1,7.352l2.95,19.716
			C135.74,373.633,143.288,408.43,143.288,408.43z"/>
		<path style="opacity:0.2;enable-background:new    ;" d="M134.805,320.29l15.505-2.678c-0.003-0.152-0.013-0.292-0.014-0.435
			c-0.142-5.842-0.294-10.487-0.401-13.428l-16.697,5.752L134.805,320.29z"/>
		<path style="opacity:0.2;enable-background:new    ;" d="M175.076,313.7l-16.319,2.77l-1.786-5.403l16.392-5.66
			C173.787,307.423,174.377,310.24,175.076,313.7z"/>
		<path style="fill:#407BFF;" d="M132.795,255.564c0,0-10.584,24.726-0.695,60.579l19.28-2.204v-8.531l2.991,7.776l20.511-3.801
			c-5.944-29.092-11.302-42.291-11.302-42.291l-1.438-14.641L132.795,255.564z"/>
		<g>
			<path style="fill:#263238;" d="M140.964,407.432c0.014-0.616,7.577-0.133,7.577-0.133s4.653,4.732,9.172,5.796
				c4.52,1.064,1.994,3.775-3.057,3.775c-5.051,0-8.906,0-12.495,0C138.572,416.87,140.815,413.812,140.964,407.432z"/>
			<g>
				<path style="fill:#407BFF;" d="M152.52,409.234c-1.057,0-2.737-0.769-3.134-0.958c-0.027-0.012-0.049-0.03-0.067-0.052l0,0h0
					c-0.01-0.013-0.019-0.027-0.027-0.042c-0.022-0.047-0.026-0.102-0.008-0.153c0.027-0.075,0.662-1.84,1.688-2.267
					c0.325-0.135,0.655-0.126,0.979,0.027c0.345,0.164,0.512,0.377,0.497,0.636c-0.023,0.397-0.562,0.796-1.177,1.125
					c0.64-0.063,1.295-0.045,1.696,0.185c0.213,0.122,0.349,0.295,0.404,0.512c0.114,0.448-0.037,0.686-0.183,0.806
					C153.03,409.182,152.796,409.234,152.52,409.234z M150.078,408.149c1.114,0.472,2.5,0.889,2.856,0.596
					c0.031-0.026,0.125-0.103,0.05-0.4c-0.028-0.111-0.099-0.197-0.216-0.265C152.223,407.768,150.926,407.961,150.078,408.149z
					 M151.431,406.066c-0.102,0-0.203,0.022-0.306,0.065c-0.559,0.232-1.036,1.054-1.298,1.626c1.12-0.426,2.203-1.014,2.222-1.354
					c0.006-0.106-0.166-0.204-0.27-0.252C151.662,406.094,151.547,406.066,151.431,406.066z"/>
			</g>
		</g>
		<g>
			<path style="fill:#263238;" d="M183.302,407.432c0.014-0.616,7.577-0.133,7.577-0.133s4.652,4.732,9.172,5.796
				c4.52,1.064,1.994,3.775-3.057,3.775s-8.906,0-12.495,0C180.909,416.87,183.152,413.812,183.302,407.432z"/>
			<g>
				<path style="fill:#407BFF;" d="M194.858,409.234c-1.057,0-2.737-0.769-3.134-0.958c-0.027-0.012-0.049-0.03-0.067-0.052l0,0h0
					c-0.01-0.013-0.019-0.027-0.027-0.042c-0.022-0.047-0.026-0.102-0.008-0.153c0.027-0.075,0.662-1.84,1.688-2.267
					c0.325-0.135,0.655-0.126,0.979,0.027c0.345,0.164,0.512,0.377,0.497,0.636c-0.023,0.397-0.562,0.796-1.176,1.125
					c0.64-0.063,1.295-0.045,1.696,0.185c0.213,0.122,0.349,0.295,0.404,0.512c0.114,0.448-0.037,0.686-0.183,0.806
					C195.368,409.182,195.134,409.234,194.858,409.234z M192.415,408.149c1.114,0.472,2.5,0.889,2.857,0.596
					c0.031-0.026,0.125-0.103,0.05-0.4c-0.028-0.111-0.099-0.197-0.216-0.265C194.561,407.768,193.264,407.961,192.415,408.149z
					 M193.769,406.066c-0.102,0-0.203,0.022-0.306,0.065c-0.559,0.232-1.036,1.054-1.298,1.626c1.12-0.426,2.203-1.014,2.222-1.354
					c0.006-0.106-0.166-0.204-0.27-0.252C194,406.094,193.884,406.066,193.769,406.066z"/>
			</g>
		</g>
		<path style="opacity:0.2;enable-background:new    ;" d="M151.383,305.404v5.046c-20.146-8.419-15.157-28.547-15.157-28.547
			c1.294,7.73,10.139,10.593,10.139,10.593L151.383,305.404z"/>
		<g>
			<path style="fill:#263238;" d="M139.331,261.178l16.263,1.701v-3.693l-15.786-1.562
				C139.685,258.522,139.486,259.997,139.331,261.178z"/>
			<polygon style="fill:#263238;" points="156.862,259.311 156.862,263.011 163.591,263.715 163.591,259.976 			"/>
			<polygon style="fill:#263238;" points="138.515,257.496 131.677,256.819 130.819,260.288 137.873,261.026 			"/>
		</g>
		<polygon style="opacity:0.2;enable-background:new    ;" points="141.372,269.447 149.76,269.447 150.645,277.802 
			146.008,281.409 141.372,278.543 		"/>
		<path style="opacity:0.2;enable-background:new    ;" d="M133.259,268.079l-0.463,9.724l-2.977,4.101c0,0-0.964-0.85-1.786-1.71
			c0.236-4.621,0.766-8.684,1.389-12.114H133.259z"/>
		<path style="fill:#EBB376;" d="M207.722,252.926c0,0,2.216-1.569,4.213-2.073c1.997-0.504,4.868-0.003,4.868-0.003l-0.387,5.295
			c0,0-2.838,1.342-4.28,1.603c-1.442,0.262-4.366-0.655-4.366-0.655L207.722,252.926z"/>
		<g>
			<path style="fill:#407BFF;" d="M153.022,312.019c0,0,0.396,2.772,1.055,2.245c0.659-0.527,21.626-3.813,21.626-3.813v-2.78
				L153.022,312.019z"/>
			<path style="opacity:0.7;fill:#FFFFFF;enable-background:new    ;" d="M153.022,312.019c0,0,0.396,2.772,1.055,2.245
				c0.659-0.527,21.626-3.813,21.626-3.813v-2.78L153.022,312.019z"/>
		</g>
		<g>
			<path style="fill:#407BFF;" d="M131.462,315.643c0,0,0.355,2.785,0.946,2.279c0.591-0.506,19.397-3.122,19.397-3.122v-2.78
				L131.462,315.643z"/>
			<path style="opacity:0.7;fill:#FFFFFF;enable-background:new    ;" d="M131.462,315.643c0,0,0.355,2.785,0.946,2.279
				c0.591-0.506,19.397-3.122,19.397-3.122v-2.78L131.462,315.643z"/>
		</g>
		<path style="fill:#263238;" d="M132.795,255.564l29.982,3.358l14.905-33.589c0,0-10.378-8.939-29.593-6.048
			C148.088,219.286,141.205,222.348,132.795,255.564z"/>
		<path style="fill:#EBB376;" d="M180.299,234.622c0,0,4.58,11.136,6.755,13.378c2.176,2.242,20.667,4.926,20.667,4.926l0.048,4.167
			c0,0-19.429-0.719-22.89-3.686c-3.462-2.967-10.884-16.022-10.884-16.022L180.299,234.622z"/>
		<path style="fill:#263238;" d="M177.681,225.333c2.229,2.369,4.691,13.129,4.691,13.129h-10.681l-3.511-5.802
			c0,0,1.469-2.416,4.722-4.615C176.023,225.935,177.681,225.333,177.681,225.333z"/>
	</g>
</g>
</svg>
