<?xml version="1.0" encoding="utf-8"?>
<!-- Generator: Adobe Illustrator 27.5.0, SVG Export Plug-In . SVG Version: 6.00 Build 0)  -->
<svg version="1.1" xmlns="http://www.w3.org/2000/svg" xmlns:xlink="http://www.w3.org/1999/xlink" x="0px" y="0px"
	 viewBox="0 0 750 500" style="enable-background:new 0 0 750 500;" xml:space="preserve">
<g id="BACKGROUND">
	<rect style="fill:#FFFFFF;" width="750" height="500"/>
</g>
<g id="OBJECTS">
	<g>
		<path style="fill:#4A7671;" d="M111.489,145.293V119.23c-14.394,0-26.063,11.669-26.063,26.063
			c0,14.394,11.669,26.063,26.063,26.063c14.394,0,26.063-11.669,26.063-26.063H111.489z"/>
		<path style="fill:#DE5959;" d="M343.681,171.356c-14.394,0-26.063-11.669-26.063-26.063c0-14.394,11.669-26.063,26.063-26.063
			V171.356z"/>
		<path style="fill:#EDCD63;" d="M158.457,145.293c7.947,0,14.389-6.442,14.389-14.389c0-7.947-6.442-14.389-14.389-14.389h-17.918
			v28.778v26.063h32.307l-15.354-26.063H158.457z"/>
		<polygon style="fill:#DE5959;" points="200.164,116.515 178.965,171.356 221.364,171.356 		"/>
		<path style="fill:#79BCB5;" d="M245.402,116.515h-17.918v2.715v26.063v26.063h13.846v-26.063h4.072
			c7.947,0,14.389-6.442,14.389-14.389C259.791,122.957,253.348,116.515,245.402,116.515z"/>
		<polygon style="fill:#4A7671;" points="281.917,119.23 281.917,138.37 277.03,138.37 277.03,119.23 263.184,119.23 
			263.184,171.356 277.03,171.356 277.03,152.216 281.917,152.216 281.917,171.356 295.763,171.356 295.763,119.23 		"/>
		<rect x="299.767" y="119.23" style="fill:#EDCD63;" width="13.846" height="52.126"/>
	</g>
	<g>
		<g>
			<path style="fill:#4A7671;" d="M135.253,347.796v-3.717c41.676,0,75.583-33.907,75.583-75.584
				c0-41.677-33.907-75.583-75.583-75.583v-3.717c43.726,0,79.3,35.574,79.3,79.3C214.553,312.222,178.98,347.796,135.253,347.796z"
				/>
			<path style="fill:#4A7671;" d="M135.253,337.883v-3.717c36.211,0,65.67-29.46,65.67-65.671c0-36.211-29.459-65.67-65.67-65.67
				v-3.717c38.26,0,69.387,31.127,69.387,69.387C204.641,306.756,173.514,337.883,135.253,337.883z"/>
			<path style="fill:#4A7671;" d="M135.253,327.97v-3.717c30.745,0,55.758-25.013,55.758-55.758
				c0-30.745-25.013-55.758-55.758-55.758v-3.717c32.795,0,59.475,26.68,59.475,59.475
				C194.729,301.29,168.048,327.97,135.253,327.97z"/>
			<path style="fill:#4A7671;" d="M135.253,319.297v-3.717c25.962,0,47.084-21.122,47.084-47.085
				c0-25.962-21.122-47.084-47.084-47.084v-3.717c28.012,0,50.801,22.79,50.801,50.801
				C186.055,296.507,163.265,319.297,135.253,319.297z"/>
		</g>
		<g>
			<path style="fill:#4A7671;" d="M133.77,309.391c23.145,0,41.908-18.31,41.908-40.896c0-22.586-18.763-40.896-41.908-40.896
				V309.391z"/>
			<path style="fill:#EDCD63;" d="M137.487,231.491c19.32,1.826,34.474,17.725,34.474,37.004c0,19.279-15.154,35.179-34.474,37.005
				V231.491z"/>
			<path style="fill:#4A7671;" d="M143.063,298.921V238.07l2.503,0.924c12.647,4.672,20.819,16.252,20.819,29.502
				c0,13.25-8.172,24.83-20.819,29.502L143.063,298.921z M146.78,243.538v49.914c9.736-4.646,15.888-14.177,15.888-24.957
				S156.516,248.185,146.78,243.538z"/>
		</g>
		<g>
			<path style="fill:#EDCD63;" d="M511.298,345.207c-42.396,0-76.887-34.491-76.887-76.886c0-42.395,34.491-76.886,76.887-76.886
				v33.455c-23.949,0-43.432,19.484-43.432,43.431s19.483,43.431,43.432,43.431V345.207z"/>
			<path style="fill:#4A7671;" d="M511.297,327.936c-32.872,0-59.615-26.743-59.615-59.615s26.743-59.615,59.615-59.615
				c13.816,0,27.284,4.834,37.922,13.613l-2.367,2.868c-9.972-8.23-22.599-12.763-35.555-12.763
				c-30.823,0-55.898,25.075-55.898,55.898c0,30.823,25.075,55.898,55.898,55.898V327.936z"/>
			<path style="fill:#4A7671;" d="M511.297,337.262c-38.014,0-68.941-30.926-68.941-68.941c0-38.014,30.926-68.941,68.941-68.941
				c15.662,0,30.424,5.118,42.69,14.803l-2.305,2.917c-11.602-9.161-25.567-14.003-40.385-14.003
				c-35.965,0-65.223,29.258-65.223,65.224c0,35.965,29.258,65.223,65.223,65.223V337.262z"/>
		</g>
		<g>
			<path style="fill:#79BCB5;" d="M514.796,276.927v68.001c35.832-0.988,64.589-31.043,64.589-68.001H514.796z"/>
			<path style="fill:#EDCD63;" d="M506.199,284.052h46.636c-0.678-24.575-21.29-44.297-46.636-44.297V284.052z"/>
			<path style="fill:#DE5959;" d="M512.227,278.209h32.051c-0.466-16.889-14.631-30.443-32.051-30.443V278.209z"/>
			<path style="fill:#4A7671;" d="M521.301,353.007v-69.884h66.449v0.929c0,37.64-28.768,67.917-65.494,68.93L521.301,353.007z
				 M523.16,284.981v66.109c34.954-1.465,62.261-30.241,62.726-66.109H523.16z"/>
		</g>
		<g>
			<rect x="94.674" y="191.053" style="fill:#EDCD63;" width="33.455" height="154.884"/>
			<path style="fill:#4A7671;" d="M120.694,338.503h-18.586V198.487h18.586V338.503z M105.825,334.786h11.152V202.205h-11.152
				V334.786z"/>
			<rect x="109.542" y="205.457" style="fill:#4A7671;" width="3.717" height="126.076"/>
		</g>
		<g>
			<g>
				<path style="fill:#DE5959;" d="M350.978,347.176h-44.232v-33.455h44.232c2.487,0,4.118-1.275,4.868-2.036
					c0.751-0.76,2.005-2.408,1.973-4.896c-0.022-1.619-0.619-3.184-1.682-4.404l-41.534-47.691c-6.39-7.333-9.91-16.733-9.91-26.465
					v-0.906c0-22.22,18.078-40.297,40.297-40.297h36.8v33.455h-36.8c-3.773,0-6.843,3.069-6.843,6.842v0.906
					c0,1.652,0.597,3.246,1.681,4.49l41.537,47.694c6.264,7.191,9.781,16.404,9.905,25.941c0.142,10.862-3.984,21.102-11.615,28.833
					C372.025,342.919,361.839,347.176,350.978,347.176z"/>
				<path style="fill:#4A7671;" d="M350.977,332.307h-44.23v-3.717h44.23c5.853,0,11.34-2.294,15.452-6.46
					c4.111-4.164,6.334-9.681,6.257-15.533c-0.066-5.138-1.962-10.102-5.336-13.976l-41.535-47.69
					c-4.032-4.63-6.253-10.562-6.253-16.702v-0.906c0-14.021,11.407-25.428,25.428-25.428h36.799v3.717H344.99
					c-11.971,0-21.71,9.74-21.71,21.711v0.906c0,5.244,1.896,10.308,5.338,14.259l41.535,47.69
					c3.953,4.539,6.173,10.353,6.251,16.372c0.089,6.854-2.514,13.313-7.329,18.192C364.26,329.62,357.832,332.307,350.977,332.307z
					"/>
				<path style="fill:#4A7671;" d="M350.978,349.034h-46.09v-37.172h46.09c1.814,0,2.999-0.928,3.544-1.481
					c0.549-0.555,1.462-1.753,1.438-3.568c-0.015-1.18-0.451-2.318-1.225-3.205l-41.534-47.692
					c-6.686-7.672-10.368-17.504-10.368-27.687v-0.906c0-23.244,18.911-42.155,42.156-42.155h38.659v37.173H344.99
					c-2.748,0-4.984,2.234-4.984,4.982v0.906c0,1.203,0.435,2.365,1.223,3.269l41.537,47.694
					c6.553,7.523,10.233,17.161,10.362,27.14c0.148,11.362-4.167,22.073-12.15,30.161
					C372.997,344.58,362.343,349.034,350.978,349.034z M308.605,345.317h42.373c10.363,0,20.078-4.06,27.354-11.435
					c7.28-7.375,11.214-17.143,11.079-27.503c-0.118-9.097-3.473-17.885-9.447-24.744l-41.537-47.694
					c-1.379-1.583-2.138-3.61-2.138-5.712v-0.906c0-4.797,3.903-8.701,8.701-8.701h34.941v-29.738H344.99
					c-21.195,0-38.439,17.243-38.439,38.438v0.906c0,9.284,3.357,18.248,9.453,25.244l41.534,47.694
					c1.352,1.548,2.112,3.538,2.14,5.598c0.042,3.167-1.555,5.262-2.509,6.229c-0.951,0.964-3.023,2.587-6.19,2.587h-42.373V345.317
					z"/>
			</g>
			<polygon style="fill:#EDCD63;" points="303.226,308.145 350.62,308.145 303.226,251.148 			"/>
			<polygon style="fill:#EDCD63;" points="342.643,226.367 381.789,226.367 381.789,270.509 			"/>
		</g>
		<g>
			<g>
				<rect x="230.042" y="191.053" style="fill:#DE5959;" width="12.7" height="154.884"/>
				<rect x="221.059" y="191.053" style="fill:#4A7671;" width="3.717" height="154.884"/>
				<rect x="230.042" y="191.053" style="fill:#4A7671;" width="3.717" height="154.884"/>
				<rect x="239.025" y="191.053" style="fill:#4A7671;" width="3.717" height="154.884"/>
				<rect x="248.008" y="191.053" style="fill:#4A7671;" width="3.717" height="154.884"/>
			</g>
			<g>
				<g>
					<path style="fill:#DE5959;" d="M255.582,229.393h40.364c-0.586-21.27-18.426-38.339-40.364-38.339V229.393z"/>
					<path style="fill:#4A7671;" d="M301.592,222.451h-42.249v-40.198h0.929c22.548,0,40.686,17.238,41.293,39.243L301.592,222.451z
						 M261.202,220.593h38.468c-1.053-20.233-17.691-36.013-38.468-36.471V220.593z"/>
				</g>
				<path style="fill:#4A7671;" d="M256.595,305.93v40.364c21.27-0.586,38.339-18.426,38.339-40.364H256.595z"/>
				<g>
					<rect x="256.256" y="257.886" style="fill:#DE5959;" width="33.455" height="25.246"/>
					<rect x="260.514" y="261.098" style="fill:#79BCB5;" width="24.94" height="18.821"/>
					<rect x="265.8" y="265.088" style="fill:#DE5959;" width="14.367" height="10.842"/>
				</g>
			</g>
		</g>
		<g>
			<g>
				<polygon style="fill:#DE5959;" points="685.634,347.176 646.077,347.176 622.365,277.316 622.442,346.275 588.987,346.313 
					588.814,191.435 628.544,191.435 652.179,261.068 652.179,191.053 685.634,191.053 				"/>
				<polygon style="fill:#EDCD63;" points="603.855,346.295 603.701,206.304 617.889,206.304 659.397,328.59 667.047,328.59 
					667.047,191.053 670.764,191.053 670.764,332.307 656.732,332.307 615.224,210.021 607.421,210.021 607.572,346.292 				"/>
				<g>
					<path style="fill:#4A7671;" d="M673.553,191.053v144.042h-18.818L613.833,214.59c-0.294-0.863-1.183-1.387-2.064-1.236
						c-0.898,0.148-1.557,0.925-1.555,1.835l0.133,131.1l3.717-0.004l-0.122-119.805l37.7,111.071
						c0.256,0.754,0.964,1.261,1.76,1.261h22.009c1.027,0,1.858-0.832,1.858-1.859v-145.9H673.553z"/>
					<path style="fill:#4A7671;" d="M600.908,203.516h18.978l40.755,120.071c0.294,0.862,1.174,1.379,2.064,1.237
						c0.897-0.149,1.556-0.925,1.556-1.834V191.053h-3.717v120.677L622.979,201.06c-0.256-0.754-0.964-1.261-1.76-1.261h-22.171
						c-0.494,0-0.966,0.196-1.314,0.545c-0.35,0.348-0.544,0.822-0.544,1.315l0.147,144.645l3.717-0.004L600.908,203.516z"/>
				</g>
			</g>
			<polygon style="fill:#79BCB5;" points="631.657,191.435 650.088,191.435 649.624,248.093 			"/>
			<polygon style="fill:#79BCB5;" points="641.879,346.289 624.765,292.208 624.765,346.289 			"/>
		</g>
		<path style="fill:#EDCD63;" d="M167.249,348.878h48.299v-53.899C215.548,294.979,205.35,333.389,167.249,348.878z"/>
		<g>
			<g>
				<polygon style="fill:#79BCB5;" points="397.316,315.805 397.316,345.937 430.771,345.937 430.771,284.052 				"/>
				<g>
					<polygon style="fill:#4A7671;" points="403.709,191.053 398.452,191.053 397.316,192.19 397.316,197.446 					"/>
					<polygon style="fill:#4A7671;" points="430.771,200.253 430.771,194.997 397.316,228.452 397.316,233.708 					"/>
					<polygon style="fill:#4A7671;" points="430.771,212.341 430.771,207.085 397.316,240.54 397.316,245.796 					"/>
					<polygon style="fill:#4A7671;" points="415.796,191.053 410.539,191.053 397.316,204.277 397.316,209.533 					"/>
					<polygon style="fill:#4A7671;" points="427.883,191.053 422.627,191.053 397.316,216.365 397.316,221.621 					"/>
					<polygon style="fill:#4A7671;" points="430.771,260.692 430.771,255.435 397.316,288.89 397.316,294.146 					"/>
					<polygon style="fill:#4A7671;" points="430.771,272.78 430.771,267.523 397.316,300.978 397.316,306.234 					"/>
					<polygon style="fill:#4A7671;" points="430.771,236.517 430.771,231.26 397.316,264.715 397.316,269.972 					"/>
					<polygon style="fill:#4A7671;" points="430.771,248.605 430.771,243.348 397.316,276.803 397.316,282.06 					"/>
					<polygon style="fill:#4A7671;" points="430.771,224.43 430.771,219.173 397.316,252.628 397.316,257.884 					"/>
				</g>
				<g>
					<rect x="397.316" y="191.053" style="fill:#79BCB5;" width="33.455" height="25.246"/>
					<rect x="401.573" y="194.266" style="fill:#4A7671;" width="24.94" height="18.821"/>
					<rect x="406.86" y="198.255" style="fill:#79BCB5;" width="14.367" height="10.842"/>
				</g>
			</g>
		</g>
	</g>
	<g>
		<polygon style="fill:#EDCD63;" points="61.395,352.052 86.268,397.084 109.456,352.052 		"/>
		<polygon style="fill:#4A7671;" points="34.078,205.458 54.201,241.89 72.962,205.458 		"/>
		<path style="fill:#EDCD63;" d="M43.417,237.885L21.69,198.548h41.982L43.417,237.885z M24.839,200.407l18.52,33.528l17.266-33.528
			H24.839z"/>
		<polygon style="fill:#4A7671;" points="699.754,279.545 713.743,304.871 726.785,279.545 		"/>
		<path style="fill:#DE5959;" d="M713.772,366.691l-15.593-28.231h30.132L713.772,366.691z M701.33,340.318l12.384,22.423
			l11.547-22.423H701.33z"/>
		<polygon style="fill:#EDCD63;" points="430.7,374.568 444.689,399.895 457.73,374.568 		"/>
		<polygon style="fill:#4A7671;" points="287.122,379.135 296.962,396.951 306.137,379.135 		"/>
		<polygon style="fill:#DE5959;" points="459.744,146.762 469.585,164.578 478.759,146.762 		"/>
		<polygon style="fill:#EDCD63;" points="696.643,349.011 706.484,366.827 715.658,349.011 		"/>
		<polygon style="fill:#DE5959;" points="313.452,399.895 327.395,425.138 340.394,399.895 		"/>
		<polygon style="fill:#EDCD63;" points="618.186,139.594 632.129,164.838 645.128,139.594 		"/>
		<path style="fill:#4A7671;" d="M444.717,389.206l-15.593-28.231h30.13L444.717,389.206z M432.275,362.834l12.384,22.423
			l11.545-22.423H432.275z"/>
		<polygon style="fill:#DE5959;" points="459.339,74.862 473.328,100.188 486.37,74.862 		"/>
		<path style="fill:#EDCD63;" d="M483.269,112.074l-15.593-28.229h30.132L483.269,112.074z M470.827,85.703l12.384,22.423
			l11.547-22.423H470.827z"/>
		<path style="fill:#4A7671;" d="M571.131,150.745l-18.517-33.521h35.778L571.131,150.745z M555.765,119.083l15.308,27.715
			l14.27-27.715H555.765z"/>
		<path style="fill:#EDCD63;" d="M558.27,142.64l-26.476-47.934h51.161L558.27,142.64z M534.945,96.564l23.267,42.128l21.693-42.128
			H534.945z"/>
		<path style="fill:#4A7671;" d="M224.539,381.363H173.38l24.683-47.935L224.539,381.363z M176.427,379.505h44.962l-23.269-42.127
			L176.427,379.505z"/>
		<path style="fill:#79BCB5;" d="M435.65,191.053v48.702c0,0,6.219-37.615,44.94-48.321L435.65,191.053z"/>
		<path style="fill:#DE5959;" d="M214.553,235.325v-48.299h-53.899C160.654,187.027,199.065,197.224,214.553,235.325z"/>
		<path style="fill:#EDCD63;" d="M303.054,207.019l-1.779-0.539c0.065-0.216,6.289-19.896,29.541-27.842H94.674v-1.859H346.6
			l-8.698,1.839C310.185,184.477,303.122,206.794,303.054,207.019z"/>
		<path style="fill:#DE5959;" d="M582.813,245.942v-53.713h-60.583C522.231,192.229,573.52,199.639,582.813,245.942z"/>
		<path style="fill:#4A7671;" d="M407.217,158.989l-26.476-47.934h51.16L407.217,158.989z M383.89,112.913l23.269,42.128
			l21.693-42.128H383.89z"/>
		<polygon style="fill:#EDCD63;" points="376.482,134.5 401.355,179.531 424.543,134.5 		"/>
	</g>
</g>
</svg>
